<svg width="20" height="21" viewBox="0 0 20 21" fill="none" xmlns="http://www.w3.org/2000/svg"><path d="M15.168 6.222c-.478-.501-1.34-.532-1.915.021l-5.628 5.415c-.146.14-.146.318 0 .459.146.14.33.14.477 0l4.655-4.48a.71.71 0 01.489-.187.708.708 0 01.485.196.656.656 0 01.203.467.655.655 0 01-.195.47l-4.655 4.48a1.707 1.707 0 01-.558.366 1.761 1.761 0 01-1.325 0c-.21-.085-.4-.21-.558-.367a1.638 1.638 0 01-.382-.537 1.585 1.585 0 010-1.275c.088-.202.218-.384.381-.537l5.628-5.415c1.09-1.049 2.86-1.083 3.912.01 1.079 1.049 1.11 2.743-.02 3.752L9.57 15.402a3.904 3.904 0 01-5.429 0c-1.521-1.464-1.521-3.76 0-5.224L9.77 4.763a.71.71 0 01.489-.188.709.709 0 01.485.196.656.656 0 01.204.467.655.655 0 01-.195.47l-5.628 5.415c-.98.943-.98 2.391 0 3.334.98.942 2.484.942 3.464 0l6.6-6.351.022-.02c.521-.46.553-1.29-.021-1.843l-.021-.02z" fill="#fff"/></svg>