<svg width="2731" height="206" viewBox="0 0 2731 206" fill="none" xmlns="http://www.w3.org/2000/svg"><g filter="url(#filter0_d_2794_3482)" opacity=".1"><path fill="red" d="M344 0h824v198H344z"/><path d="M738.23 129.016V39.793h-31.751v84.753c0 13.313-3.429 23.831-10.286 31.556-6.857 7.725-16.253 11.588-28.187 11.59-11.94 0-21.359-3.839-28.258-11.518-6.899-7.679-10.35-18.222-10.352-31.629V39.793h-31.759v89.223c0 20.852 6.412 37.561 19.236 50.127 12.823 12.567 29.867 18.851 51.131 18.853 21.263 0 38.283-6.284 51.061-18.853 12.778-12.568 19.167-29.277 19.165-50.127zM1005.71 117.002a80.859 80.859 0 0013.68 44.997 81.095 81.095 0 0036.41 29.831 81.314 81.314 0 0046.89 4.61 81.139 81.139 0 0041.54-22.166 80.928 80.928 0 0022.21-41.469 80.874 80.874 0 00-4.62-46.795 81.025 81.025 0 00-29.88-36.348 81.29 81.29 0 00-76.14-7.485 81.126 81.126 0 00-26.32 17.556 80.933 80.933 0 00-23.77 57.269zm131.38.019c0 9.917-2.95 19.612-8.47 27.857a50.145 50.145 0 01-22.54 18.468 50.31 50.31 0 01-29.02 2.853 50.284 50.284 0 01-25.73-13.722 50.081 50.081 0 01-13.74-25.674 50.055 50.055 0 012.85-28.97 50.237 50.237 0 0118.51-22.503 50.291 50.291 0 0127.91-8.45c13.32 0 26.1 5.282 35.52 14.686a50.094 50.094 0 0114.71 35.455zM469.764 144.937c-.935-17.125-9.329-29.087-25.183-35.887-6.623-2.794-17.487-5.446-32.592-7.958-4.015-.652-7.046-1.186-9.093-1.604-2.05-.423-4.688-.996-7.906-1.743a33.184 33.184 0 01-7.272-2.375 40.6 40.6 0 01-5.178-3.213 10.973 10.973 0 01-3.848-4.536 14.78 14.78 0 01-1.117-5.934c0-5.679 2.564-10.217 7.692-13.615 5.128-3.398 12.077-5.096 20.848-5.093 9.417 0 16.786 1.93 22.107 5.793 5.32 3.862 8.116 9.424 8.387 16.686h30.084c-.286-14.988-5.86-26.974-16.723-35.958-10.863-8.985-25.249-13.478-43.16-13.48-17.906 0-32.384 4.305-43.436 12.917-11.052 8.611-16.58 19.852-16.584 33.722a45.97 45.97 0 001.893 13.545 42.248 42.248 0 004.611 10.4 28.522 28.522 0 007.635 7.753 70.432 70.432 0 009.017 5.583 60.368 60.368 0 0010.844 3.979c4.473 1.256 8.11 2.165 10.91 2.727 2.801.562 6.577 1.26 11.33 2.095 4.664.838 8.372 1.536 11.125 2.094a90.251 90.251 0 019.37 2.513 30.38 30.38 0 018.116 3.698 17.722 17.722 0 014.897 5.379 14.288 14.288 0 012.027 7.539c0 6.241-2.844 11.151-8.531 14.732-5.687 3.58-12.916 5.373-21.687 5.378-9.608 0-17.465-2.164-23.571-6.492-6.105-4.327-9.346-10.448-9.722-18.362H344c.462 16.011 6.407 28.81 17.834 38.396 11.428 9.586 26.559 14.38 45.396 14.383 18.84 0 33.996-4.491 45.467-13.474 11.471-8.983 17.208-20.969 17.21-35.958 0-1.3-.047-2.513-.143-3.627M515.703 179.499c9.79 9.819 23.174 14.73 40.151 14.731h23.642v-28.768h-17.632c-9.327 0-16.484-2.49-21.472-7.471-4.988-4.981-7.483-12.079-7.485-21.295V67.163h45.748v-27.23h-46.023V3.767h-5.455l-26.16 15.61v20.557l-24.624 5.464v21.765h24.624v72.05c0 17.035 4.896 30.463 14.687 40.286M896.98 194.087h25.602V3.771h-31.753v51.504a81.211 81.211 0 00-42.098-18.57 81.265 81.265 0 00-45.443 7.276 81.083 81.083 0 00-34.167 30.78 80.87 80.87 0 00-11.894 44.378 80.88 80.88 0 0014.206 43.696 81.104 81.104 0 0035.733 28.952 81.277 81.277 0 0045.763 4.891 81.19 81.19 0 0041.066-20.743l2.985 18.152zm-57.569-26.921c-28.315 0-51.275-22.45-51.275-50.141 0-27.69 22.96-50.137 51.275-50.137 28.314 0 51.275 22.45 51.275 50.137s-22.961 50.141-51.275 50.141zM969.358 0a20.36 20.36 0 00-11.296 3.42 20.302 20.302 0 00-7.489 9.108 20.264 20.264 0 004.408 22.117 20.366 20.366 0 0022.158 4.4 20.32 20.32 0 009.125-7.475 20.262 20.262 0 001.88-19.042 20.28 20.28 0 00-4.407-6.585A20.362 20.362 0 00969.358 0zM985.234 58.19H953.48v136.032h31.754V58.19z" fill="#fff"/></g><path d="M1452.23 154.743c-4.31.001-8.52 1.27-12.1 3.647a21.677 21.677 0 00-8.02 9.707 21.479 21.479 0 00-1.24 12.496 21.62 21.62 0 005.96 11.074 21.858 21.858 0 0011.15 5.918c4.23.834 8.6.405 12.58-1.232a21.719 21.719 0 009.77-7.967 21.546 21.546 0 003.67-12.016 21.4 21.4 0 00-1.66-8.277 21.59 21.59 0 00-4.72-7.017 21.772 21.772 0 00-7.06-4.688 21.934 21.934 0 00-8.33-1.645zM1337.54 36a81.92 81.92 0 00-45.3 13.652c-13.41 8.901-23.86 21.552-30.03 36.353a80.403 80.403 0 00-4.64 46.8c3.14 15.712 10.91 30.145 22.31 41.472a81.76 81.76 0 0041.75 22.167 82.073 82.073 0 0047.12-4.611c14.89-6.131 27.63-16.513 36.59-29.834a80.617 80.617 0 0013.74-45.002c0-10.637-2.11-21.17-6.21-30.998a80.853 80.853 0 00-17.67-26.28 81.499 81.499 0 00-26.46-17.557 81.956 81.956 0 00-31.2-6.162zm0 131.168c-9.99 0-19.75-2.942-28.05-8.452a50.224 50.224 0 01-18.59-22.507 49.753 49.753 0 01-2.88-28.975 50.07 50.07 0 0113.82-25.678 50.603 50.603 0 0125.85-13.725 50.809 50.809 0 0129.17 2.854 50.383 50.383 0 0122.65 18.47 49.895 49.895 0 018.51 27.862c0 13.301-5.32 26.057-14.79 35.462-9.46 9.405-22.3 14.689-35.69 14.689z" fill="#fff"/><g opacity=".1"><path fill="red" d="M1562 0h1168v198H1562z"/><path d="M1917.52.005h-31.78v190.226h31.78V.005zM1648.11 160.734c-5.7 3.58-12.94 5.371-21.71 5.372-9.61 0-17.48-2.161-23.59-6.484-6.11-4.322-9.35-10.436-9.73-18.339H1562c.46 15.991 6.41 28.774 17.85 38.348 11.43 9.579 26.58 14.368 45.43 14.366 18.86-.002 34.03-4.488 45.51-13.458 11.48-8.97 17.22-20.942 17.22-35.914 0-1.298-.05-2.51-.15-3.623-.93-17.108-9.33-29.056-25.19-35.843-6.63-2.79-17.51-5.44-32.63-7.948-4.01-.647-7.05-1.188-9.1-1.602-2.05-.414-4.68-.995-7.91-1.741a33.285 33.285 0 01-7.28-2.372 41.425 41.425 0 01-5.18-3.21 11.005 11.005 0 01-3.85-4.53 14.697 14.697 0 01-1.12-5.927c0-5.671 2.57-10.204 7.7-13.598 5.14-3.394 12.09-5.09 20.86-5.087 9.43 0 16.8 1.928 22.12 5.785s8.13 9.412 8.41 16.666h30.1c-.28-14.97-5.86-26.94-16.73-35.914-10.88-8.974-25.28-13.46-43.2-13.458-17.92 0-32.41 4.3-43.47 12.901-11.06 8.601-16.59 19.826-16.59 33.675-.05 4.578.59 9.138 1.89 13.53a42.129 42.129 0 004.62 10.387 28.455 28.455 0 007.63 7.744 72.113 72.113 0 009.03 5.576 60.858 60.858 0 0010.85 3.974c4.48 1.255 8.12 2.163 10.92 2.724 2.8.561 6.58 1.258 11.34 2.092 4.67.837 8.38 1.534 11.13 2.092 3.17.669 6.31 1.507 9.39 2.509 2.87.827 5.61 2.072 8.11 3.694a17.815 17.815 0 014.91 5.372 14.257 14.257 0 012.02 7.531c0 6.232-2.84 11.136-8.53 14.713M2317.13 175.517c9.79 9.808 23.19 14.712 40.18 14.714h23.66v-28.732h-17.65c-9.33 0-16.5-2.487-21.49-7.462-4.99-4.975-7.49-12.065-7.49-21.269V63.32h45.79V36.124h-46.06V0h-5.46l-26.18 15.592v20.531l-24.65 5.459V63.32h24.65v71.962c0 17.014 4.9 30.426 14.69 40.236M2645.73 198a81.083 81.083 0 0055.67-22.039l2.98 18.131H2730V4.009h-31.77v51.447a81.32 81.32 0 00-34.58-17.203 81.514 81.514 0 00-38.65.672 81.29 81.29 0 00-33.95 18.396 80.801 80.801 0 00-21.57 31.95 80.635 80.635 0 009.66 74.168 81.161 81.161 0 0029.04 25.408 81.5 81.5 0 0037.55 9.153zm1.04-130.952c28.34 0 51.31 22.424 51.31 50.081 0 27.657-22.97 50.076-51.31 50.076-28.34 0-51.32-22.419-51.32-50.076 0-27.658 22.98-50.08 51.32-50.08zM1826.81 141.695a50.14 50.14 0 01-22.44 17.859 50.425 50.425 0 01-28.6 2.69 50.364 50.364 0 01-25.41-13.359 50.013 50.013 0 01-13.9-25.041h129.58a80.693 80.693 0 00-14.57-57.993c-12.11-16.77-30.2-28.289-50.57-32.195a81.462 81.462 0 00-58.95 11.183c-17.5 11.089-30.08 28.425-35.15 48.455a80.59 80.59 0 007.85 59.268c10.11 18.033 26.77 31.528 46.56 37.718a81.51 81.51 0 0059.85-4.429c18.65-9.033 33.12-24.832 40.45-44.156h-34.7zm-41.24-78.651a50.431 50.431 0 0129.78 9.732 50.138 50.138 0 0118.22 25.408h-96a50.12 50.12 0 0118.21-25.409 50.455 50.455 0 0129.79-9.731zM2059.02 141.695a50.215 50.215 0 01-22.45 17.857 50.4 50.4 0 01-28.59 2.689 50.29 50.29 0 01-25.41-13.358 50 50 0 01-13.9-25.037h129.57c2.76-20.475-2.46-41.225-14.57-57.994-12.11-16.77-30.2-28.288-50.57-32.195a81.471 81.471 0 00-58.95 11.183A80.923 80.923 0 001939 93.295a80.59 80.59 0 007.85 59.268c10.12 18.034 26.78 31.528 46.56 37.718a81.506 81.506 0 0059.85-4.428c18.65-9.034 33.13-24.832 40.46-44.157l-34.7-.001zm-41.25-78.65a50.407 50.407 0 0129.78 9.731 50.08 50.08 0 0118.22 25.408h-96a50.081 50.081 0 0118.22-25.408 50.424 50.424 0 0129.78-9.731zM2508.47 141.695a50.247 50.247 0 01-22.44 17.859 50.425 50.425 0 01-28.6 2.69 50.283 50.283 0 01-25.41-13.359 50.013 50.013 0 01-13.9-25.041h129.57a80.639 80.639 0 00-14.56-57.993 81.287 81.287 0 00-50.57-32.195 81.488 81.488 0 00-58.96 11.183c-17.49 11.089-30.07 28.425-35.15 48.455a80.688 80.688 0 007.85 59.268c10.12 18.033 26.78 31.528 46.56 37.718a81.506 81.506 0 0059.85-4.429c18.65-9.033 33.13-24.832 40.46-44.156h-34.7zm-41.25-78.651a50.461 50.461 0 0129.79 9.732 50.12 50.12 0 0118.21 25.408h-96a50.139 50.139 0 0118.22-25.409 50.425 50.425 0 0129.78-9.731zM2196.18 163.202c-8.96 0-17.76-2.386-25.49-6.912a50.09 50.09 0 01-18.45-18.83 49.85 49.85 0 01-6.32-25.549 49.862 49.862 0 017.55-25.215 50.194 50.194 0 0119.35-17.92 50.413 50.413 0 0125.79-5.676c8.95.432 17.63 3.24 25.12 8.133a50.119 50.119 0 0117.52 19.697h33.02c-5.39-18.813-17.45-35.043-33.93-45.68a81.433 81.433 0 00-55.72-12.171c-19.44 2.79-37.21 12.507-50 27.348-12.8 14.84-19.77 33.8-19.6 53.364a80.692 80.692 0 0020.48 53.034c13.04 14.628 30.97 24.05 50.45 26.52a81.426 81.426 0 0055.51-13.088 80.885 80.885 0 0033.17-46.233h-32.77a50.09 50.09 0 01-18.55 21.256 50.379 50.379 0 01-27.13 7.922z" fill="#fff"/></g><defs><filter id="filter0_d_2794_3482" x="340" y="0" width="832" height="206" filterUnits="userSpaceOnUse" color-interpolation-filters="sRGB"><feFlood flood-opacity="0" result="BackgroundImageFix"/><feColorMatrix in="SourceAlpha" values="0 0 0 0 0 0 0 0 0 0 0 0 0 0 0 0 0 0 127 0" result="hardAlpha"/><feOffset dy="4"/><feGaussianBlur stdDeviation="2"/><feComposite in2="hardAlpha" operator="out"/><feColorMatrix values="0 0 0 0 0 0 0 0 0 0 0 0 0 0 0 0 0 0 0.25 0"/><feBlend in2="BackgroundImageFix" result="effect1_dropShadow_2794_3482"/><feBlend in="SourceGraphic" in2="effect1_dropShadow_2794_3482" result="shape"/></filter></defs></svg>