<svg width="135" height="26" viewBox="0 0 135 26" fill="none" xmlns="http://www.w3.org/2000/svg"><path d="M10.546 21.574c-3.605 0-6.53-2.86-6.53-6.387 0-3.528 2.923-6.386 6.53-6.386 3.606 0 6.53 2.86 6.53 6.386 0 3.526-2.924 6.387-6.53 6.387zm0-16.704C4.723 4.87 0 9.487 0 15.185 0 20.882 4.723 25.5 10.546 25.5c5.823 0 10.545-4.62 10.545-10.315 0-5.696-4.722-10.315-10.545-10.315zM64.987 21.574c-3.605 0-6.53-2.86-6.53-6.388S61.38 8.8 64.987 8.8s6.53 2.86 6.53 6.386c0 3.526-2.923 6.388-6.53 6.388zm0-16.705c-5.823 0-10.546 4.62-10.546 10.315 0 5.696 4.723 10.316 10.546 10.316 5.823 0 10.546-4.62 10.546-10.316 0-5.695-4.723-10.315-10.546-10.315z" fill="#485956"/><path d="M72.744 5.356h2.789v19.657h-2.786l-1.231-9.832 1.231-9.823-.003-.002zM132.488 25.499c1.387 0 2.511-1.1 2.511-2.457 0-1.356-1.124-2.456-2.511-2.456s-2.511 1.1-2.511 2.456c0 1.357 1.124 2.457 2.511 2.457zM117.428 21.574c-3.606 0-6.528-2.86-6.528-6.388s2.924-6.386 6.528-6.386c3.605 0 6.529 2.86 6.529 6.386 0 3.526-2.924 6.388-6.529 6.388zm0-16.705c-5.824 0-10.545 4.62-10.545 10.315 0 5.696 4.722 10.316 10.545 10.316 5.824 0 10.546-4.62 10.546-10.316 0-5.695-4.722-10.315-10.546-10.315z" fill="#485956"/><path d="M125.189 5.356h2.789v19.657h-2.789l-1.232-9.832 1.232-9.823v-.002zM91.469 14.666c-1.459-.828-3.363-1.138-5.103-1.418-1.245-.195-2.392-.385-3.248-.745-.856-.36-1.444-.95-1.438-1.883 0-.767.388-1.421 1.073-1.86.683-.445 1.656-.685 2.845-.685 1.26 0 2.285.255 3.009.767.691.49 1.093 1.226 1.165 2.14h3.738a5.94 5.94 0 00-.194-1.333 5.064 5.064 0 00-.358-1.01 4.348 4.348 0 00-.25-.475c-.272-.46-.607-.89-.994-1.257a6.34 6.34 0 00-1.485-1.055 6.519 6.519 0 00-.925-.406 8.055 8.055 0 00-1.028-.3 11.92 11.92 0 00-1.12-.195 12.86 12.86 0 00-1.21-.082h-.256c-2.371 0-4.329.602-5.695 1.642-1.368 1.04-2.137 2.5-2.137 4.246 0 2.274.98 3.554 2.377 4.377 1.409.822 3.256 1.152 4.964 1.437 1.261.205 2.448.415 3.343.821.894.4 1.5 1.04 1.492 2.044 0 .881-.465 1.574-1.218 2.034-.755.46-1.778.692-2.928.692-1.261 0-2.362-.28-3.17-.837-.778-.535-1.268-1.341-1.352-2.373h-3.862c.083 1.973.91 3.585 2.3 4.721 1.43 1.16 3.465 1.822 5.944 1.822s4.538-.625 5.97-1.71c1.429-1.092 2.235-2.645 2.235-4.541 0-2.418-1.028-3.753-2.479-4.58h-.004v-.003l-.001.005zM52.563 12.064v12.933h-4.017v-12.33c0-3.1-1.954-4.61-4.361-4.61-2.408 0-4.362 1.51-4.362 4.61v12.33h-4.019v-12.33c0-3.1-1.956-4.61-4.363-4.61-2.407 0-4.361 1.51-4.361 4.61V25h-4.017V5.341h2.785l.358 2.876a7.415 7.415 0 016.245-3.37c2.63 0 5.094 1.436 6.374 3.577a7.403 7.403 0 016.37-3.578c4.073 0 7.377 3.23 7.377 7.216l-.007.003-.002-.001zM100.548 8.794v9.41c0 2.185 1.813 3.956 4.044 3.956h2.338v2.067a6.569 6.569 0 01-3.9 1.27c-3.59 0-6.503-2.848-6.503-6.36V8.792h-2.601V5.978l2.601-.615V2.32L99.911.5h.635v4.858h6.384v3.436h-6.384V8.79l.002.003z" fill="#485956"/></svg>