<svg width="129" height="33" viewBox="0 0 129 33" fill="none" xmlns="http://www.w3.org/2000/svg"><path d="M0 18.376v-7.791l.49-.05c.931 4.852 3.21 7.841 6.469 7.841 2.033 0 3.332-1.176 3.332-3.013 0-1.617-.858-2.671-2.94-3.602l-3.333-1.495C1.176 8.992 0 7.424 0 4.9 0 1.862 2.793 0 6.86 0c3.453 0 7.351.673 7.351.673v6.359l-.49.074C12.545 2.989 10.291.515 7.596.515c-1.789 0-2.94 1.078-2.94 2.621 0 1.47.881 2.475 3.038 3.406l3.185 1.397c3.21 1.42 4.533 3.038 4.533 5.537 0 3.332-3.186 5.39-7.988 5.39-2.352 0-7.424-.49-7.424-.49zM17.74 12.25c0-4.09 2.768-6.615 7.399-6.615 4.728 0 6.567 2.422 6.567 6.126H22.64v.563c0 2.867 1.543 5.317 4.19 5.317 2.523 0 4.557-2.205 4.876-4.949l.465.049c-.465 3.602-2.646 5.88-7.032 5.88-4.606 0-7.4-2.523-7.4-6.37zm9.065-.98c0-3.618-.784-5.145-1.96-5.145-1.25 0-2.058 1.446-2.18 5.146h4.14zM34.425 16c0-1.936 1.495-3.161 5.17-3.823l3.651-.661v-2.45c0-2.132-.712-2.94-1.74-2.94-1.25 0-1.69.906-1.69 3.43v1.078l-4.852 1.127.123-1.544c.245-3.185 2.303-4.582 6.418-4.582 4.508 0 6.395 1.667 6.395 4.656v7.595h1.96v.49h-6.614v-2.205c-.663 1.568-2.353 2.45-4.778 2.45-2.475 0-4.043-1.029-4.043-2.621zm8.821-3.21v-.784c-2.77.465-3.92 1.985-3.92 3.332 0 1.25.612 2.058 1.567 2.058 1.519 0 2.353-1.641 2.353-4.606zM56.55 17.151c-2.783 0-3.921 1.225-3.921 1.225h-.49V1.716h-1.96v-.49c2.01 0 4.508-.466 6.615-1.226v7.703c.579-1.24 1.911-2.068 3.7-2.068 3.43 0 5.611 2.475 5.611 6.543 0 4.14-2.459 6.444-5.767 6.444-1.856 0-2.881-.49-3.789-1.47zm4.655-4.9c0-3.185-.662-5.488-2.328-5.488-1.299 0-2.083 1.396-2.083 3.675v4.802c0 1.397.809 2.45 2.034 2.45 1.715 0 2.377-2.254 2.377-5.439zM67.657 18.376v-.49h1.96V6.616h-1.96v-.49c2.034 0 4.705.122 6.616-.49v4.287c.828-4.288 5.246-4.288 5.246-4.288l-.722 3.712s-4.524-.281-4.524 2.781v5.758h4.41v.49H67.657zM81.07 12.128c0-4.091 2.695-6.493 7.105-6.493s7.106 2.402 7.106 6.493c0 4.092-2.696 6.493-7.106 6.493s-7.106-2.4-7.106-6.493zm9.31 0c0-3.773-.343-6.003-2.205-6.003s-2.205 2.23-2.205 6.003c0 3.774.343 6.003 2.205 6.003s2.205-2.23 2.205-6.003zM97.608 12.128c0-4.091 2.696-6.493 7.106-6.493s7.105 2.402 7.105 6.493c0 4.092-2.695 6.493-7.105 6.493s-7.106-2.4-7.106-6.493zm9.311 0c0-3.773-.343-6.003-2.205-6.003s-2.205 2.23-2.205 6.003c0 3.774.343 6.003 2.205 6.003s2.205-2.23 2.205-6.003zM112.194 18.376v-.49h1.961V1.716h-1.961v-.49c1.985 0 4.509-.466 6.616-1.226v6.125h9.066v.49h-2.181l-2.303 2.059 4.239 9.212h1.225v.49h-16.662zm6.616-6.297l5.611-4.973a.89.89 0 00-.794-.49h-4.817v5.463zm3.43 5.807l-2.377-6.1-1.053.955v5.145h3.43zM2.145 33a2.847 2.847 0 01-1.287-.282A2.342 2.342 0 010 32.03l.404-.35c.399.532.991.797 1.778.797.364.017.726-.076 1.038-.265a.837.837 0 00.399-.736.849.849 0 00-.395-.703 2.134 2.134 0 00-.457-.234c-.185-.07-.4-.14-.649-.212-.376-.114-.695-.22-.958-.32a1.847 1.847 0 01-.627-.367 1.139 1.139 0 01-.34-.84c-.005-.29.08-.572.244-.81.17-.24.403-.429.672-.548a2.28 2.28 0 01.967-.197 2.905 2.905 0 012.065.894l-.362.394a2.791 2.791 0 00-.735-.575 1.944 1.944 0 00-.942-.223 1.55 1.55 0 00-.968.293.893.893 0 00-.383.735.692.692 0 00.266.552c.147.114.313.2.49.256.202.071.452.149.75.234.27.072.507.143.713.214.187.062.366.147.531.254.448.285.672.671.672 1.16a1.34 1.34 0 01-.256.81c-.184.244-.43.435-.713.553-.335.141-.696.21-1.059.203zM8.14 27.849H6.81v-.49h1.33v-1.48h.532v1.48h1.49v.49H8.141zM15.888 33c-.68 0-1.185-.185-1.511-.554-.327-.37-.49-.948-.49-1.735v-3.352h.531v3.331c0 .617.123 1.072.368 1.362.245.291.617.436 1.117.436a1.903 1.903 0 001.622-.888c.164-.256.25-.553.251-.857v-3.384h.532v5.534h-.517l-.043-1.022c-.108.217-.26.409-.447.564-.2.171-.426.31-.67.41-.235.1-.488.152-.743.154z" fill="#fff"/><path d="M11.1 32.746c-.29.172-.622.26-.959.253-.68 0-1.184-.184-1.51-.553-.326-.37-.49-.948-.49-1.735v-3.352h.531v3.331c0 .617.123 1.072.368 1.362.245.29.613.436 1.117.436.332.004.659-.08.947-.245l-.005.503zM24.136 33a2.492 2.492 0 01-1.348-.368c-.4-.251-.725-.604-.942-1.022a3.1 3.1 0 01-.346-1.479 3.05 3.05 0 01.357-1.49c.223-.418.551-.77.952-1.022a2.573 2.573 0 012.624-.026c.37.214.673.525.877.9v-2.614h.533v7.014h-.51l-.033-1.129A2.483 2.483 0 0124.14 33h-.005zm.074-.532c.386.005.764-.1 1.092-.304a2.17 2.17 0 00.765-.83 2.773 2.773 0 000-2.427 2.112 2.112 0 00-.76-.83 2.029 2.029 0 00-1.103-.303 2.052 2.052 0 00-1.112.303 2.13 2.13 0 00-.761.83c-.19.374-.285.79-.277 1.208-.007.417.086.83.272 1.202.17.344.432.635.756.842.338.21.73.316 1.128.306v.002zM30.564 32.893v-5.534h.532v5.534h-.532zM30.564 26.412v-.533h.532v.533h-.532zM13.355 27.359h4.949v.49h-4.95v-.49zM18.304 32.404h.532v.49h-.532v-.49z" fill="#fff"/><path d="M26.84 32.404h.531v.49h-.532v-.49zM25.775 25.879h.532v.49h-.532v-.49zM30.032 27.359h.532v.49h-.532v-.49zM36.608 33a2.883 2.883 0 01-1.47-.368 2.675 2.675 0 01-1.01-1.033 3.03 3.03 0 01-.368-1.5 2.925 2.925 0 01.367-1.47 2.67 2.67 0 011.011-1.012 3.139 3.139 0 012.948 0c.422.238.77.588 1.006 1.011.248.45.374.957.367 1.47a3.063 3.063 0 01-.367 1.501 2.63 2.63 0 01-1.006 1.033c-.45.252-.961.38-1.478.367zm0-.532c.413.007.82-.1 1.176-.31.341-.201.62-.492.809-.84.201-.377.302-.8.293-1.226a2.416 2.416 0 00-.293-1.197 2.126 2.126 0 00-.809-.824 2.492 2.492 0 00-2.362 0c-.34.195-.62.48-.81.824a2.43 2.43 0 00-.291 1.197c-.009.427.091.849.292 1.225.189.348.469.64.81.842.359.21.77.315 1.185.306v.003z" fill="#fff"/></svg>