<svg width="208" height="29" viewBox="0 0 208 29" fill="none" xmlns="http://www.w3.org/2000/svg"><g clip-path="url(#clip0_3029_156)" fill="#fff"><path d="M207.698 3.95h-.017c-.512-.107-1.04-.09-1.56-.033-.965-.156-1.963-.18-2.911-.148-1.409.05-2.802.287-4.153.689-1.35.401-2.634.983-3.825 1.712-1.25.77-2.298 1.721-3.33 2.745-.629.631-1.284 1.262-2.055 1.73a4.63 4.63 0 01-1.334.557 3.286 3.286 0 01-.797.073c-1.292-.139-2.592-.27-3.893-.385a239.787 239.787 0 00-8.078-.581c-.134 0-.277-.017-.411-.017.26-.221.512-.45.772-.664.495-.401.99-.786 1.501-1.171.143-.107.286-.205.428-.312 0 .041.017.074.067.09.973.312 2.114.246 3.113.074a11.156 11.156 0 003.053-1.024c1.98-.984 3.624-2.483 5.084-4.097a54.925 54.925 0 002.005-2.401.269.269 0 00.067-.033.155.155 0 00.092-.164c.084-.107.176-.213.26-.32.101-.13-.017-.278-.168-.27-2.307.107-4.538.754-6.644 1.663-1.073.468-2.114 1-3.137 1.557-.948.525-1.997 1.025-2.794 1.77-.78.73-1.275 1.795-.914 2.836-.084.065-.176.13-.26.196-.57.443-1.141.893-1.695 1.344-.36.295-.755.59-1.107.91-5.117-.262-10.251-.303-15.36.098a86.054 86.054 0 00-3.565.369c-.05-.017-.092-.041-.143-.066-.142-.057-.26.017-.31.123-2.861.377-5.704.91-8.498 1.614.285-.286.554-.59.847-.86.479-.45.982-.877 1.485-1.295.067-.057.134-.106.21-.164.679-.049 1.351-.278 2.005-.442a80.34 80.34 0 002.005-.549 43.709 43.709 0 004.018-1.377c2.273-.926 4.446-2.13 6.283-3.745.453-.393.906-.819 1.292-1.27.285-.336.285-.745-.142-.958-.495-.246-1.175-.23-1.72-.254a14.995 14.995 0 00-8.85 2.401 14.842 14.842 0 00-5.109 5.711c-.059.123.025.221.134.246a22.98 22.98 0 00-1.669 1.442c-.403.377-.864.778-1.208 1.23-.848.22-1.686.442-2.525.696-4.815 1.442-9.496 3.277-14.295 4.785-.553.172-1.115.345-1.678.508.613-.786 1.158-1.622 1.703-2.45 1.947-.246 3.641-1.68 4.832-3.114 1.494-1.802 2.559-3.933 3.733-5.94.739-1.263 1.502-2.516 2.249-3.778.033-.058.033-.115.008-.156.017-.074-.008-.164-.101-.172-1.208-.057-2.122.967-2.902 1.713-1.04.991-2.081 1.99-3.113 2.99-1.837 1.787-3.808 3.557-5.125 5.761-.31.525-.738 1.156-.705 1.787.025.418.294.786.68.901a48.45 48.45 0 01-1.879 2.606c0 .008 0 .016-.017.024-4.043 1.156-8.213 1.983-12.432 1.975-.621 0-1.25-.016-1.871-.057-.168-.008-.201.238-.034.254 4.941.41 9.841-.426 14.58-1.745 1.284-.353 2.55-.746 3.817-1.148 1.711.009 3.423-.024 5.134.025 1.451.04 2.894.106 4.337.197-.034.024-.042.073 0 .098.478.418 1.091.746 1.644 1.073.546.32 1.099.631 1.661.91 1.124.565 2.307 1.024 3.54 1.262 1.368.262 2.735.131 4.102.016.739-.065 1.477-.123 2.223-.114.705.008 1.41.065 2.114.098.747.033 1.502.04 2.232-.082.512-.082 1.25-.188 1.493-.713.025-.057 0-.106-.034-.147-.285-1.041-1.644-1.516-2.55-1.893a23.244 23.244 0 00-3.775-1.221 24.427 24.427 0 00-8.019-.5c-.739.073-1.477.188-2.207.328-.763.147-1.501.393-2.265.549-.008 0-.016.008-.025.016a120.305 120.305 0 00-3.842-.189c-1.569-.049-3.146-.098-4.723-.073 3.163-1.033 6.292-2.155 9.463-3.163 4.639-1.467 9.37-2.516 14.21-3.09 2.76 1.197 5.445 2.63 7.919 4.327-.604 2.245.688 4.556 2.123 6.228.78.91 1.644 1.77 2.516 2.598.856.81 1.754 1.59 2.744 2.245 1.09.72 2.273 1.27 3.556 1.549.084.016.185-.05.21-.123.42-1.164.151-2.508-.277-3.639-.436-1.18-1.04-2.302-1.719-3.36a21.088 21.088 0 00-2.307-2.966c-.881-.942-1.837-1.876-2.953-2.548-1.225-.746-2.685-1.123-4.102-.68-.017 0-.025.016-.042.024a40.97 40.97 0 00-2.735-1.713 52.326 52.326 0 00-4.001-2.056l.243-.025c4.228-.426 8.473-.533 12.717-.442 2.039.434 4.094.754 6.124 1.22 2.24.509 4.463 1.123 6.627 1.902.814.295 1.619.614 2.408.958-.009.025-.017.058 0 .09.772 2.213 2.441 4.098 4.278 5.556 2.114 1.672 4.572 2.86 7.047 3.91.654.278 1.308.548 1.971.819.076.032.168.065.26.098.009.008.017.016.034.024.05.041.1.05.151.025.318.09.662.098.847-.221.252-.426-.109-1.024-.277-1.418a17.36 17.36 0 00-.797-1.639 15.314 15.314 0 00-4.84-5.211 15.854 15.854 0 00-8.23-2.606.242.242 0 00-.243.27c-2.642-1.13-5.402-1.983-8.204-2.655a87.144 87.144 0 00-3.859-.827c-.445-.082-.881-.172-1.325-.246l1.367.049c2.693.123 5.386.303 8.078.533 2.685.229 5.369.54 8.062.713.671.04 1.342.065 2.022.098.109 0 .184-.05.226-.115.294.033.596.05.898.058.629.016 1.258-.009 1.887-.09a13.444 13.444 0 006.929-3c.948-.795 1.796-1.688 2.71-2.524 1.015-.934 2.106-1.786 3.431-2.253.269-.098.092-.492-.176-.393v.049zM179.554 5.12c.805-.671 1.786-1.155 2.701-1.663 1.854-1.024 3.791-1.95 5.847-2.532a15.387 15.387 0 013.171-.557c-.042.057-.084.106-.126.164-2.399.81-4.698 1.99-6.887 3.236-1.989 1.131-3.901 2.418-5.73 3.786-.243-.926.327-1.844 1.032-2.434h-.008zm-1.284 2.877c.134.049.31-.058.302-.213a56.53 56.53 0 012.181-1.492c2.148-1.385 4.421-2.614 6.728-3.728 1.049-.508 2.122-.967 3.196-1.45-2.399 2.933-5.117 5.875-8.993 6.76a9.416 9.416 0 01-1.661.23c-.595.032-1.183-.042-1.778-.083.008 0 .017-.016.025-.016v-.008zm-13.212-5.433c-.369.442-.806.844-1.233 1.22-1.712 1.517-3.742 2.656-5.856 3.54a41.588 41.588 0 01-4.06 1.418c-.73.213-1.468.418-2.206.623-.512.14-1.049.246-1.552.418a31.873 31.873 0 012.701-1.852c2.466-1.516 5.109-2.712 7.802-3.777.788-.312 1.577-.623 2.374-.926.713-.279 1.451-.525 2.147-.853a.638.638 0 01-.126.197l.009-.008zm-4.774-.475c1.2-.205 2.425-.27 3.633-.189.268.016.537.033.805.066.109.016.218.024.319.073a.782.782 0 01.084.05c-.646.188-1.275.442-1.904.68-.722.278-1.443.557-2.156.844-1.426.59-2.844 1.196-4.228 1.876-2.416 1.172-4.757 2.5-6.879 4.13 2.022-3.925 5.889-6.76 10.326-7.539v.009zm-23.371 7.26c-1.09 1.868-2.223 3.802-3.993 5.146-.847.647-1.787 1.073-2.802 1.368.017-.032.042-.057.059-.09a49.358 49.358 0 012.257-3.155c1.619-2.097 3.431-4.056 5.184-6.047.889-1.008 1.804-2.008 2.642-3.057-1.115 1.95-2.223 3.9-3.355 5.843l.008-.008zm-7.717 5.883c-.051-.311.075-.63.209-.91.252-.515.554-1.007.881-1.474.621-.902 1.351-1.721 2.114-2.516 1.695-1.753 3.481-3.433 5.243-5.121.789-.754 1.602-1.73 2.718-1.967-.881.877-1.711 1.81-2.533 2.737-.906 1.016-1.821 2.024-2.727 3.04-1.753 1.958-3.464 3.95-4.932 6.121-.135.205-.277.402-.411.607-.294.016-.512-.246-.562-.517zm14.16 2.54a24.255 24.255 0 015.755-.507c2.55.082 5.092.565 7.482 1.425.655.238 1.309.5 1.93.803.537.255 1.006.566 1.325 1.041-.813-.246-1.669-.385-2.5-.549a119.113 119.113 0 00-8.472-1.368c-2.148-.27-4.304-.476-6.468-.631.31-.074.629-.14.931-.205l.017-.008zm-1.896.509l.126-.05.856.05a120.635 120.635 0 0114.42 1.909c.99.189 1.98.459 2.978.59-.16.18-.428.254-.654.311-.319.082-.646.14-.974.18-.662.074-1.333.05-2.004.017-1.309-.066-2.576-.09-3.876.033-1.342.123-2.676.238-4.018.016-1.225-.196-2.391-.63-3.498-1.163-.63-.304-1.242-.64-1.846-.992-.512-.295-1.015-.647-1.552-.901.017 0 .034 0 .05-.009l-.008.009zm29.319.057c1.602 1.672 2.936 3.606 3.884 5.695.285.631.528 1.287.646 1.967.092.54.084 1.04-.034 1.549-.587-1.426-1.468-2.795-2.357-4.049a31.008 31.008 0 00-3.28-3.884 35.736 35.736 0 00-4.966-4.17c0-.033-.017-.05-.042-.074 2.399-.582 4.614 1.376 6.14 2.958l.009.008zm-6.174-2.425c2.894 2.015 5.503 4.4 7.625 7.219.545.73 1.065 1.483 1.544 2.262.503.819.922 1.68 1.392 2.515-2.122-.508-3.926-1.803-5.503-3.237a38.572 38.572 0 01-2.475-2.458c-.796-.869-1.551-1.803-2.046-2.876-.504-1.09-.705-2.262-.529-3.434l-.008.009zm33.312 5.252c.637.918 1.191 1.91 1.585 2.95.084.213.227.484.218.721 0 .32-.319.238-.57.14-.587-.836-1.351-1.59-2.047-2.336a44.183 44.183 0 00-2.341-2.327c-1.585-1.442-3.322-2.68-5.184-3.753a33.535 33.535 0 00-3.523-1.77c4.731.197 9.169 2.556 11.845 6.383l.017-.008zm-4.044-1.065a42.025 42.025 0 012.668 2.622c.419.45.839.902 1.25 1.36.159.172.31.345.47.517l-1.083-.443c-2.323-.975-4.63-2.057-6.66-3.548-2.03-1.492-3.658-3.343-4.748-5.58 2.936 1.294 5.696 2.95 8.103 5.08v-.008zm-4.739-8.662s.058-.024.092-.032c.704-.279 1.325-.713 1.887-1.213 1.141-1 2.106-2.155 3.339-3.065 2.307-1.688 5.109-2.704 7.969-2.958a16.06 16.06 0 012.349-.033c-.243.05-.486.107-.721.172a17.822 17.822 0 00-3.616 1.442c-2.349 1.23-4.538 2.73-6.853 4.024-.646.36-1.301.713-1.98 1.024-.571.262-1.166.475-1.737.73-.243-.033-.486-.058-.729-.082v-.009zm12.977-3.204c-1.888 1.73-4.161 2.934-6.728 3.393a13.75 13.75 0 01-2.173.221c-.377.008-.763 0-1.14-.016h-.16c-.017 0-.033-.017-.05-.017-.47-.073-.948-.139-1.426-.205.302-.114.595-.245.889-.377a22.863 22.863 0 001.753-.86c1.133-.606 2.232-1.27 3.331-1.934 2.239-1.36 4.521-2.688 7.055-3.482a14.627 14.627 0 012.13-.508c.286-.05.579-.074.873-.099.092.017.176.025.268.041-1.787.943-3.146 2.508-4.614 3.852l-.008-.009zM.134 4.99c1.317.467 2.416 1.328 3.431 2.254.906.836 1.762 1.729 2.71 2.524a13.212 13.212 0 003.204 1.975c1.183.516 2.442.86 3.725 1.024.62.082 1.258.106 1.887.09.303 0 .596-.025.898-.057a.246.246 0 00.227.123c.67-.033 1.342-.058 2.021-.099 2.693-.172 5.37-.491 8.062-.713a189.09 189.09 0 018.078-.532l1.368-.05c-.445.082-.89.164-1.326.246a78.816 78.816 0 00-3.859.828c-2.801.672-5.561 1.524-8.204 2.655.017-.123-.067-.279-.243-.27-2.928.09-5.805 1-8.23 2.605a15.321 15.321 0 00-4.84 5.212 14.845 14.845 0 00-.797 1.639c-.168.393-.528.991-.277 1.418.185.32.529.31.848.22a.15.15 0 00.15-.024c.009-.008.017-.016.034-.024.092-.033.176-.066.26-.099.655-.27 1.317-.54 1.972-.82 2.474-1.056 4.932-2.236 7.046-3.908 1.837-1.459 3.507-3.343 4.279-5.556.008-.033 0-.065 0-.09a40.688 40.688 0 012.407-.959c2.164-.778 4.379-1.393 6.627-1.9 2.03-.468 4.094-.787 6.124-1.222 4.245-.09 8.498.017 12.717.443.084 0 .16.016.244.024a50.876 50.876 0 00-4.002 2.057 40.991 40.991 0 00-2.734 1.713c-.017 0-.026-.017-.042-.025-1.41-.442-2.87-.065-4.103.68-1.115.672-2.072 1.607-2.952 2.549a20.26 20.26 0 00-2.307 2.966 18.213 18.213 0 00-1.72 3.36c-.42 1.13-.696 2.466-.277 3.638.025.074.134.14.21.123 1.283-.278 2.474-.827 3.557-1.549.99-.655 1.887-1.425 2.743-2.245a37.212 37.212 0 002.517-2.597c1.434-1.68 2.726-3.991 2.122-6.228 2.474-1.696 5.159-3.13 7.919-4.327 4.84.566 9.563 1.623 14.21 3.09 3.171 1 6.3 2.122 9.463 3.162-1.577-.024-3.154.025-4.723.074-1.283.041-2.559.107-3.842.189-.008 0-.017-.009-.025-.017-.764-.164-1.502-.401-2.265-.549a24.656 24.656 0 00-10.226.172c-1.292.295-2.55.705-3.775 1.221-.898.377-2.257.853-2.55 1.893-.042.033-.059.082-.034.14.235.524.982.622 1.493.712.739.123 1.494.115 2.232.082.705-.032 1.41-.09 2.114-.098.738-.008 1.485.05 2.223.115 1.376.114 2.743.246 4.102-.017 1.242-.237 2.424-.696 3.54-1.262a32.5 32.5 0 001.661-.91c.554-.327 1.158-.655 1.644-1.073.034-.032.026-.082 0-.098 1.443-.09 2.894-.156 4.337-.197 1.712-.04 3.423-.016 5.134-.024 1.267.401 2.534.795 3.817 1.147 4.748 1.32 9.639 2.155 14.58 1.745.168-.016.134-.262-.034-.254-.62.033-1.25.058-1.87.058-4.22 0-8.39-.828-12.433-1.975 0-.008 0-.016-.016-.025a48.069 48.069 0 01-1.88-2.605.98.98 0 00.68-.902c.034-.63-.394-1.262-.705-1.786-1.317-2.204-3.288-3.975-5.125-5.76-1.032-1-2.072-2-3.112-2.992-.789-.754-1.695-1.778-2.903-1.712-.092 0-.126.098-.1.172a.172.172 0 00.008.155c.746 1.262 1.51 2.508 2.248 3.778 1.174 2.008 2.24 4.13 3.733 5.94 1.183 1.435 2.886 2.877 4.832 3.115.545.827 1.099 1.663 1.703 2.45a99.625 99.625 0 01-1.678-.508c-4.798-1.508-9.48-3.343-14.294-4.786a67.614 67.614 0 00-2.525-.696c-.353-.45-.814-.844-1.208-1.23a25.146 25.146 0 00-1.67-1.442c.11-.024.193-.123.134-.245a14.721 14.721 0 00-5.108-5.712c-2.072-1.352-4.497-2.163-6.98-2.368-.62-.05-1.25-.057-1.87-.033-.537.025-1.225 0-1.72.254-.428.213-.436.623-.143.959.386.459.84.877 1.292 1.27 1.837 1.614 4.01 2.819 6.283 3.745 1.309.532 2.66.975 4.019 1.377.662.196 1.333.377 2.004.549.655.172 1.326.393 2.005.442.067.057.143.107.21.164.512.41 1.007.844 1.485 1.295.294.27.562.573.847.86a74.93 74.93 0 00-8.498-1.614c-.05-.107-.168-.18-.31-.123-.05.016-.092.04-.143.065a86.164 86.164 0 00-3.565-.368c-5.109-.41-10.243-.36-15.36-.099-.352-.32-.746-.614-1.107-.91a63.761 63.761 0 00-1.695-1.343c-.084-.066-.176-.131-.26-.197.353-1.04-.142-2.106-.914-2.835-.797-.746-1.837-1.254-2.794-1.77a39.662 39.662 0 00-3.137-1.557C20.938 1.45 18.715.803 16.4.697c-.142 0-.268.147-.168.27.084.106.177.213.26.32-.008.065.009.13.093.163a.255.255 0 01.067.033c.654.811 1.308 1.623 2.005 2.401 1.46 1.614 3.104 3.114 5.083 4.097.965.476 1.988.836 3.054 1.025.998.172 2.139.237 3.112-.074.05-.016.067-.05.067-.09.143.106.285.205.428.311.512.377 1.007.77 1.502 1.172.26.213.511.443.771.664-.134 0-.276.016-.41.016-2.694.148-5.386.344-8.08.582-1.3.115-2.6.246-3.892.385-.268 0-.528-.016-.796-.074a4.635 4.635 0 01-1.334-.557c-.772-.467-1.426-1.098-2.055-1.729-1.032-1.024-2.08-1.975-3.33-2.745A16.295 16.295 0 008.95 5.154a16.6 16.6 0 00-4.153-.688c-.94-.033-1.946 0-2.91.147-.52-.057-1.04-.073-1.56.033H.31c-.268-.098-.436.303-.176.394v-.05zm29.361 3.204c-1.829-1.368-3.741-2.655-5.73-3.785-2.189-1.238-4.488-2.426-6.887-3.237-.042-.058-.084-.107-.126-.164 1.074.074 2.14.262 3.171.557 2.056.582 3.994 1.508 5.847 2.532.915.508 1.896 1 2.702 1.664.704.59 1.283 1.507 1.031 2.433h-.008zm.277.467c-.596.041-1.175.115-1.779.082a9.42 9.42 0 01-1.66-.229c-3.876-.885-6.594-3.819-8.993-6.76 1.065.475 2.139.934 3.196 1.45 2.307 1.114 4.58 2.344 6.728 3.728.738.476 1.468.984 2.18 1.492 0 .156.169.262.303.213.008 0 .017.016.025.016v.008zm13.061-5.645c.697.327 1.426.573 2.148.852.788.303 1.585.614 2.374.926 2.693 1.065 5.343 2.261 7.801 3.777a31.844 31.844 0 012.702 1.852c-.504-.172-1.04-.278-1.552-.418-.739-.204-1.477-.401-2.207-.622a41.652 41.652 0 01-4.06-1.418c-2.114-.885-4.144-2.024-5.855-3.54-.428-.385-.864-.778-1.233-1.221a1.285 1.285 0 01-.126-.197l.008.009zm15.226 7.252c-2.122-1.631-4.463-2.959-6.879-4.13a77.597 77.597 0 00-6.384-2.72c-.629-.247-1.258-.5-1.904-.681.025-.016.05-.033.084-.05.1-.04.21-.057.319-.073.268-.033.536-.05.805-.066a15.403 15.403 0 013.632.189c4.438.77 8.297 3.614 10.327 7.539v-.008zm9.697-6.122c.84 1.05 1.754 2.049 2.643 3.057 1.761 1.991 3.565 3.95 5.184 6.047a51.836 51.836 0 012.257 3.155c.016.033.041.058.058.09-1.015-.295-1.954-.713-2.801-1.368-1.762-1.352-2.895-3.278-3.994-5.146-1.132-1.942-2.24-3.893-3.355-5.843l.008.008zM78.267 16.39c-.134-.205-.276-.402-.41-.607-1.469-2.18-3.18-4.162-4.933-6.12-.906-1.017-1.82-2.025-2.727-3.04-.83-.927-1.652-1.861-2.533-2.738 1.116.238 1.938 1.213 2.718 1.967 1.762 1.688 3.548 3.368 5.243 5.121.763.787 1.493 1.615 2.114 2.516.327.467.637.959.88 1.475.135.279.27.598.21.91-.041.27-.268.532-.562.516zM65.61 18.618c-2.165.155-4.32.36-6.468.63-1.896.238-3.783.525-5.662.845-.94.164-1.88.336-2.81.524-.831.164-1.687.303-2.5.55.327-.476.788-.788 1.325-1.042.629-.303 1.275-.565 1.93-.803a24.01 24.01 0 017.482-1.425 24.273 24.273 0 015.755.508c.31.065.62.13.931.204l.017.009zm1.015.311c-.537.254-1.049.607-1.552.902-.604.352-1.217.688-1.846.991-1.107.533-2.273.959-3.498 1.164-1.334.22-2.676.106-4.018-.017-1.3-.123-2.575-.098-3.876-.033-.67.033-1.342.05-2.005-.016a5.644 5.644 0 01-.973-.18c-.226-.058-.495-.131-.654-.312.998-.13 1.997-.401 2.978-.59a120.27 120.27 0 0114.42-1.91c.286-.015.57-.032.856-.048.042.016.084.024.126.05.017 0 .033 0 .05.007l-.008-.008zM43.395 16.02s-.033.041-.042.074a35.738 35.738 0 00-4.966 4.17 31.81 31.81 0 00-3.28 3.885c-.89 1.254-1.77 2.614-2.357 4.048a3.84 3.84 0 01-.034-1.549c.118-.68.361-1.335.646-1.966a20.619 20.619 0 013.884-5.696c1.519-1.581 3.742-3.531 6.14-2.958l.01-.008zm-.495 3.966c-.495 1.074-1.241 2.008-2.047 2.876-.788.853-1.61 1.68-2.474 2.459-1.577 1.434-3.38 2.728-5.503 3.236.47-.835.889-1.696 1.392-2.515.478-.779.99-1.533 1.544-2.262 2.122-2.819 4.731-5.203 7.625-7.22.176 1.173-.025 2.345-.528 3.434l-.009-.008zM21.962 15.43a38.057 38.057 0 00-3.523 1.77c-1.863 1.082-3.6 2.31-5.185 3.753a44.288 44.288 0 00-2.34 2.327c-.696.746-1.46 1.5-2.047 2.336-.252.098-.562.18-.57-.14 0-.237.134-.5.218-.72.394-1.041.948-2.033 1.585-2.95 2.676-3.828 7.122-6.188 11.845-6.384l.017.008zm.302.238c-1.082 2.245-2.718 4.089-4.748 5.58-2.03 1.491-4.337 2.573-6.66 3.548l-1.083.443c.16-.172.31-.344.47-.517.41-.458.83-.91 1.25-1.36.855-.901 1.736-1.794 2.667-2.622 2.408-2.13 5.16-3.786 8.104-5.08v.008zm-4.094-3.491c-.57-.254-1.174-.459-1.736-.73a30.021 30.021 0 01-1.98-1.024C12.147 9.13 9.958 7.63 7.6 6.4a18.036 18.036 0 00-3.615-1.442c-.235-.066-.478-.115-.722-.172.78-.041 1.569-.033 2.35.032 2.868.254 5.662 1.279 7.968 2.959 1.234.9 2.198 2.056 3.34 3.064.561.492 1.182.926 1.887 1.213.025.008.058.025.092.033-.243.033-.487.049-.73.082v.008zM1.284 5.04c.092-.017.176-.025.268-.041.294.024.587.057.872.098.722.115 1.435.287 2.131.508C7.08 6.4 9.362 7.727 11.61 9.088c1.099.663 2.19 1.335 3.33 1.934.57.303 1.158.598 1.754.86.285.131.587.262.889.377-.478.065-.948.13-1.426.205-.017 0-.034.008-.05.016h-.16c-.377.016-.763.033-1.14.016a14.79 14.79 0 01-2.174-.22c-2.558-.46-4.831-1.664-6.727-3.393C4.438 7.539 3.07 5.973 1.292 5.03l-.008.009zM96.337 21.002l-.042-.065a.274.274 0 00-.126-.09.197.197 0 00-.117-.017c-.042 0-.076 0-.118.025-.034.016-.067.032-.092.065a.234.234 0 00-.067.09.33.33 0 00-.017.156c0 .025.008.041.017.066 0 .04.016.073.042.098a.234.234 0 00.075.082c.025.008.042.025.067.033a.189.189 0 00.118.016c.025 0 .05 0 .075-.008.034 0 .067-.025.1-.05a23.6 23.6 0 01.051-.048.293.293 0 00.059-.14c0-.024.008-.049.017-.065 0-.058 0-.107-.026-.156l-.016.008zM112.259 20.658a.302.302 0 00-.067-.147l-.059-.058a.387.387 0 00-.159-.065c-.042 0-.084 0-.126.008-.042 0-.076.024-.109.049a.257.257 0 00-.076.09.194.194 0 00-.042.115v.082a.31.31 0 00.067.147l.059.058a.39.39 0 00.16.065c.041 0 .083 0 .125-.008.042 0 .076-.024.109-.05a.257.257 0 00.076-.09.194.194 0 00.042-.114v-.082zM106.303 14.373c-.093-.025-.168.025-.21.09-.428-1.336-1.267-2.647-2.433-3.49-.084-.255-.176-.509-.327-.714-.033-.04-.075-.049-.126-.04-.067-.017-.151 0-.193.073-.469.86-.688 1.942-.847 2.901-.084.492-.134.983-.159 1.475-.495.27-.831.95-.982 1.426a4.078 4.078 0 00-.084 2.106c.344 1.557 1.51 2.983 2.668 4.072a.24.24 0 00.117.09c.009.05.042.083.076.107-.017.074.042.148.126.107.738-.377 1.375-1.058 1.879-1.697a8.557 8.557 0 001.25-2.237c.293-.795.528-1.696.478-2.548-.042-.721-.461-1.533-1.233-1.721zm-.495.475c.226.844.285 1.73.184 2.598a4.38 4.38 0 01-.058.336 8.27 8.27 0 00-.109-.779c-.235-1.18-.713-2.302-1.183-3.417-.235-.549-.47-1.09-.68-1.647a4.319 4.319 0 01-.117-.36c.906.926 1.619 1.983 1.963 3.27zm-2.458-3.228c.017.049.033.106.05.155.185.533.403 1.066.629 1.582.462 1.049.94 2.098 1.242 3.204.243.901.335 1.893.184 2.827-.092.205-.176.41-.226.623-.017.057.008.098.042.13-.193.59-.487 1.14-.931 1.607.218-.606.268-1.311.268-1.91 0-.934-.184-1.868-.411-2.77-.26-1.032-.579-2.048-.772-3.088a8.477 8.477 0 01-.083-2.344l.008-.016zm-2.005 6.678a3.898 3.898 0 01-.05-1.868c.075-.336.201-.664.386-.95.092-.14.201-.263.31-.378-.008.394-.008.787 0 1.18a14.967 14.967 0 001.057 4.778c-.73-.82-1.418-1.664-1.711-2.754l.008-.008zm1.04-2.007c-.059-1.017 0-2.05.168-3.057.126-.787.369-1.532.587-2.294-.528 1.819.235 3.876.696 5.62.244.919.453 1.853.495 2.795.026.492 0 .992-.092 1.475-.067.36-.201.68-.335 1a13.487 13.487 0 01-1.519-5.548v.009zm4.153 2.663a8.564 8.564 0 01-1.116 1.852c.184-.361.319-.754.403-1.156.125-.27.218-.557.302-.827a8.07 8.07 0 00.285-1.402 7.27 7.27 0 00-.21-2.622c1.628.607.847 2.991.344 4.155h-.008zM103.962 23.084c-.562 0-.679.86-.109.86.571 0 .68-.86.109-.86z"/></g><defs><clipPath id="clip0_3029_156"><path fill="#fff" d="M0 0h208v29H0z"/></clipPath></defs></svg>