<svg width="45" height="57" viewBox="0 0 45 57" fill="none" xmlns="http://www.w3.org/2000/svg">
<path id="?" d="M18.9716 57V42.5172C22.7898 41.5862 25.8409 40.0172 28.125 37.8103C30.4091 35.6035 32.0625 33 33.0852 30C34.142 27 34.6705 23.8966 34.6705 20.6897C34.6705 18.2414 34.517 15.8276 34.2102 13.4483C33.9034 11.069 33.2557 8.91379 32.267 6.98276C31.3125 5.01724 29.8807 3.44828 27.9716 2.27586C26.0966 1.06897 23.5739 0.46552 20.4034 0.46552C17.6761 0.46552 15.1023 0.965519 12.6818 1.96552C10.2955 2.93103 8.16477 4.24138 6.28977 5.89656C4.44886 7.51724 3 9.34483 1.94318 11.3793C0.886364 13.3793 0.357955 15.4138 0.357955 17.4828H0.102273C0.102273 16.4483 0.375 15.5517 0.920455 14.7931C1.46591 14.0345 2.18182 13.4655 3.06818 13.0862C3.95455 12.6724 4.875 12.4655 5.82955 12.4655C6.85227 12.4655 7.80682 12.6897 8.69318 13.1379C9.57955 13.5517 10.2955 14.1897 10.8409 15.0517C11.3864 15.8793 11.6591 16.8966 11.6591 18.1034C11.6591 19.4828 11.3523 20.6035 10.7386 21.4655C10.125 22.2931 9.35796 22.8966 8.4375 23.2759C7.55114 23.6552 6.68182 23.8448 5.82955 23.8448C4.26136 23.8448 2.89773 23.3103 1.73864 22.2414C0.579546 21.1724 0 19.5862 0 17.4828C0 15.3448 0.545455 13.2414 1.63636 11.1724C2.76136 9.10345 4.29545 7.24138 6.23864 5.58621C8.18182 3.89655 10.4148 2.55172 12.9375 1.55172C15.4943 0.517241 18.2045 0 21.0682 0C25.875 0 30.0682 0.86207 33.6477 2.58621C37.2614 4.31035 40.0568 6.72414 42.0341 9.82759C44.0114 12.931 45 16.5517 45 20.6897C45 24.6552 43.858 28.2414 41.5739 31.4483C39.3239 34.6552 36.2386 37.2759 32.3182 39.3103C28.4318 41.3103 24.0852 42.4655 19.2784 42.7759V57H18.9716Z" fill="white"/>
</svg>
