<svg width="208" height="29" viewBox="0 0 208 29" fill="none" xmlns="http://www.w3.org/2000/svg">
<g id="OBJECTS" clip-path="url(#clip0_3029_156)">
<path id="Vector" d="M207.698 3.94969C207.698 3.94969 207.69 3.94969 207.681 3.94969C207.169 3.84317 206.641 3.85956 206.121 3.91692C205.156 3.76122 204.158 3.73664 203.21 3.76942C201.801 3.81858 200.408 4.05622 199.057 4.45775C197.707 4.85927 196.423 5.44108 195.232 6.17038C193.982 6.94065 192.934 7.8912 191.902 8.9155C191.273 9.54647 190.618 10.1774 189.847 10.6445C189.436 10.8904 188.983 11.0952 188.513 11.2017C188.244 11.2673 187.984 11.2755 187.716 11.2755C186.424 11.1362 185.124 11.0051 183.823 10.8904C181.139 10.6527 178.446 10.4561 175.745 10.3086C175.611 10.3086 175.468 10.2922 175.334 10.2922C175.594 10.0709 175.846 9.84147 176.106 9.62842C176.601 9.22689 177.096 8.84175 177.607 8.45662C177.75 8.35009 177.893 8.25176 178.035 8.14523C178.035 8.1862 178.052 8.21898 178.102 8.23537C179.075 8.54676 180.216 8.4812 181.215 8.30912C182.28 8.12065 183.303 7.76829 184.268 7.28482C186.248 6.30149 187.892 4.80191 189.352 3.18761C190.048 2.40915 190.711 1.5979 191.357 0.786654C191.382 0.778459 191.398 0.770265 191.424 0.753876C191.499 0.721099 191.524 0.647349 191.516 0.589988C191.6 0.483461 191.692 0.376934 191.776 0.270406C191.877 0.139296 191.759 -0.00820343 191.608 -9.0235e-06C189.301 0.106518 187.07 0.753876 184.964 1.66346C183.891 2.13054 182.85 2.66317 181.827 3.22039C180.879 3.74483 179.83 4.24469 179.033 4.99038C178.253 5.71969 177.758 6.78496 178.119 7.82565C178.035 7.8912 177.943 7.95676 177.859 8.02231C177.289 8.46481 176.718 8.9155 176.164 9.3662C175.804 9.66119 175.409 9.95619 175.057 10.2758C169.94 10.0136 164.806 9.97258 159.697 10.3741C158.506 10.4724 157.315 10.5954 156.132 10.7429C156.082 10.7265 156.04 10.7019 155.989 10.6773C155.847 10.6199 155.729 10.6937 155.679 10.8002C152.818 11.1772 149.975 11.7098 147.181 12.4145C147.466 12.1277 147.735 11.8245 148.028 11.5541C148.507 11.1034 149.01 10.6773 149.513 10.2594C149.58 10.202 149.647 10.1529 149.723 10.0955C150.402 10.0463 151.074 9.81689 151.728 9.653C152.399 9.48092 153.07 9.29245 153.733 9.10397C155.092 8.70245 156.434 8.25995 157.751 7.72731C160.024 6.80135 162.197 5.59677 164.034 3.98247C164.487 3.58914 164.94 3.16303 165.326 2.71234C165.611 2.37637 165.611 1.96665 165.184 1.75359C164.689 1.50776 164.009 1.52415 163.464 1.49957C162.843 1.47498 162.214 1.48318 161.593 1.53234C159.11 1.72901 156.686 2.54845 154.614 3.90053C152.433 5.32635 150.663 7.31759 149.505 9.61203C149.446 9.73494 149.53 9.83328 149.639 9.85786C149.06 10.3167 148.498 10.792 147.97 11.3001C147.567 11.677 147.106 12.0785 146.762 12.5292C145.914 12.7505 145.076 12.9717 144.237 13.2258C139.422 14.668 134.741 16.5035 129.942 18.0113C129.389 18.1834 128.827 18.3555 128.264 18.5193C128.877 17.7327 129.422 16.8969 129.967 16.0692C131.914 15.8234 133.608 14.3894 134.799 12.9553C136.293 11.1526 137.358 9.02203 138.532 7.0144C139.271 5.75246 140.034 4.49872 140.781 3.23678C140.814 3.17942 140.814 3.12206 140.789 3.08109C140.806 3.00734 140.781 2.9172 140.688 2.909C139.48 2.85164 138.566 3.87594 137.786 4.62163C136.746 5.61316 135.705 6.61288 134.673 7.61259C132.836 9.39897 130.865 11.169 129.548 13.3733C129.238 13.8977 128.81 14.5287 128.843 15.1596C128.868 15.5776 129.137 15.9463 129.523 16.061C128.919 16.946 128.306 17.8228 127.644 18.6668C127.644 18.675 127.644 18.6832 127.627 18.6914C123.584 19.8468 119.414 20.6745 115.195 20.6663C114.574 20.6663 113.945 20.6499 113.324 20.6089C113.156 20.6007 113.123 20.8466 113.29 20.8629C118.231 21.2727 123.131 20.4368 127.87 19.1175C129.154 18.7652 130.42 18.3718 131.687 17.9703C133.398 17.9785 135.11 17.9457 136.821 17.9949C138.272 18.0359 139.715 18.1014 141.158 18.1916C141.124 18.2162 141.116 18.2653 141.158 18.2899C141.636 18.7078 142.249 19.0356 142.802 19.3634C143.348 19.683 143.901 19.9943 144.463 20.2729C145.587 20.8384 146.77 21.2972 148.003 21.5349C149.371 21.7971 150.738 21.666 152.105 21.5513C152.844 21.4857 153.582 21.4284 154.328 21.4366C155.033 21.4447 155.738 21.5021 156.442 21.5349C157.189 21.5677 157.944 21.5759 158.674 21.4529C159.186 21.371 159.924 21.2645 160.167 20.74C160.192 20.6827 160.167 20.6335 160.133 20.5925C159.848 19.5518 158.489 19.0766 157.583 18.6996C156.367 18.1834 155.1 17.7818 153.808 17.4787C151.191 16.8723 148.465 16.7002 145.789 16.9788C145.05 17.0525 144.312 17.1673 143.582 17.3066C142.819 17.4541 142.081 17.6999 141.317 17.8556C141.309 17.8556 141.301 17.8638 141.292 17.872C140.009 17.79 138.734 17.7245 137.45 17.6835C135.881 17.6343 134.304 17.5852 132.727 17.6098C135.89 16.5773 139.019 15.4546 142.19 14.4467C146.829 12.9799 151.56 11.931 156.4 11.3574C159.16 12.5538 161.845 13.9878 164.319 15.6841C163.715 17.9293 165.007 20.2402 166.442 21.9118C167.222 22.8214 168.086 23.6818 168.958 24.5095C169.814 25.3207 170.712 26.0992 171.702 26.7547C172.792 27.4758 173.975 28.0249 175.258 28.3035C175.342 28.3199 175.443 28.2543 175.468 28.1805C175.888 27.0169 175.619 25.6731 175.191 24.5422C174.755 23.3622 174.151 22.2396 173.472 21.1825C172.792 20.1255 172.02 19.1339 171.165 18.2162C170.284 17.2738 169.328 16.3396 168.212 15.6677C166.987 14.922 165.527 14.5451 164.11 14.9876C164.093 14.9876 164.085 15.0039 164.068 15.0121C163.179 14.4058 162.264 13.8321 161.333 13.2995C160.033 12.5538 158.691 11.8737 157.332 11.2427C157.416 11.2345 157.491 11.2263 157.575 11.2181C161.803 10.792 166.048 10.6855 170.292 10.7756C172.331 11.2099 174.386 11.5295 176.416 11.9966C178.656 12.5047 180.879 13.1192 183.043 13.8977C183.857 14.1927 184.662 14.5123 185.451 14.8564C185.442 14.881 185.434 14.9138 185.451 14.9466C186.223 17.1591 187.892 19.0438 189.729 20.5024C191.843 22.1741 194.301 23.3622 196.776 24.4111C197.43 24.6897 198.084 24.9601 198.747 25.2306C198.823 25.2633 198.915 25.2961 199.007 25.3289C199.016 25.3371 199.024 25.3453 199.041 25.3535C199.091 25.3945 199.141 25.4026 199.192 25.3781C199.51 25.4682 199.854 25.4764 200.039 25.1568C200.291 24.7307 199.93 24.1325 199.762 23.7392C199.519 23.182 199.267 22.6329 198.965 22.1003C197.791 20.0271 196.13 18.2162 194.125 16.8887C191.7 15.2826 188.823 14.373 185.895 14.2828C185.728 14.2828 185.635 14.4303 185.652 14.5533C183.01 13.4224 180.25 12.5702 177.448 11.8983C176.173 11.5951 174.881 11.3165 173.589 11.0706C173.144 10.9887 172.708 10.8985 172.264 10.8248C172.717 10.8412 173.178 10.8576 173.631 10.874C176.324 10.9969 179.017 11.1772 181.709 11.4066C184.394 11.636 187.078 11.9474 189.771 12.1195C190.442 12.1605 191.113 12.1851 191.793 12.2178C191.902 12.2178 191.977 12.1687 192.019 12.1031C192.313 12.1359 192.615 12.1523 192.917 12.1605C193.546 12.1769 194.175 12.1523 194.804 12.0703C196.088 11.9065 197.346 11.5623 198.529 11.046C199.687 10.538 200.769 9.87425 201.733 9.0712C202.681 8.27634 203.529 7.38315 204.443 6.54732C205.458 5.61316 206.549 4.76094 207.874 4.29386C208.143 4.19553 207.966 3.8022 207.698 3.90053V3.94969ZM179.554 5.12149C180.359 4.44955 181.34 3.96608 182.255 3.45803C184.109 2.43373 186.046 1.50776 188.102 0.925959C189.134 0.63096 190.199 0.442489 191.273 0.368739C191.231 0.4261 191.189 0.475266 191.147 0.532627C188.748 1.34387 186.449 2.52387 184.26 3.76942C182.271 4.90025 180.359 6.18677 178.53 7.55523C178.287 6.62926 178.857 5.71149 179.562 5.12149H179.554ZM178.27 7.99773C178.404 8.0469 178.58 7.94037 178.572 7.78468C179.285 7.27662 180.015 6.76857 180.753 6.29329C182.901 4.90844 185.174 3.67928 187.481 2.56484C188.53 2.05679 189.603 1.5979 190.677 1.11443C188.278 4.04803 185.56 6.98982 181.684 7.87481C181.139 7.99773 180.585 8.07967 180.023 8.10426C179.428 8.13704 178.84 8.06328 178.245 8.02231C178.253 8.02231 178.262 8.00593 178.27 8.00593V7.99773ZM165.058 2.56484C164.689 3.00734 164.252 3.40886 163.825 3.78581C162.113 5.30177 160.083 6.44079 157.969 7.32579C156.644 7.87481 155.285 8.3337 153.909 8.74342C153.179 8.95648 152.441 9.16134 151.703 9.3662C151.191 9.5055 150.654 9.61203 150.151 9.78411C151.015 9.12036 151.921 8.50578 152.852 7.93218C155.318 6.41621 157.961 5.21983 160.654 4.15455C161.442 3.84317 162.231 3.53178 163.028 3.22859C163.741 2.94998 164.479 2.70414 165.175 2.37637C165.15 2.44192 165.108 2.50748 165.049 2.57303L165.058 2.56484ZM160.284 2.08956C161.484 1.8847 162.709 1.81915 163.917 1.90109C164.185 1.91748 164.454 1.93387 164.722 1.96665C164.831 1.98304 164.94 1.99123 165.041 2.0404C165.074 2.05679 165.1 2.07318 165.125 2.08956C164.479 2.27804 163.85 2.53206 163.221 2.7697C162.499 3.04831 161.778 3.32692 161.065 3.61372C159.639 4.20372 158.221 4.81011 156.837 5.49024C154.421 6.66204 152.08 7.98954 149.958 9.62022C151.98 5.6951 155.847 2.85984 160.284 2.08137V2.08956ZM136.913 9.34981C135.823 11.2181 134.69 13.152 132.92 14.4959C132.073 15.1433 131.133 15.5694 130.118 15.8644C130.135 15.8316 130.16 15.807 130.177 15.7742C130.89 14.6926 131.637 13.6437 132.434 12.6194C134.053 10.5216 135.865 8.56314 137.618 6.5719C138.507 5.56399 139.422 4.56427 140.26 3.51539C139.145 5.46566 138.037 7.41593 136.905 9.358L136.913 9.34981ZM129.196 15.2334C129.145 14.922 129.271 14.6024 129.405 14.3238C129.657 13.8076 129.959 13.3159 130.286 12.8488C130.907 11.9474 131.637 11.128 132.4 10.3331C134.095 8.57953 135.881 6.89968 137.643 5.21163C138.432 4.45775 139.245 3.48261 140.361 3.24498C139.48 4.12178 138.65 5.05594 137.828 5.98191C136.922 6.99801 136.007 8.00592 135.101 9.02203C133.348 10.9805 131.637 12.9717 130.169 15.1433C130.034 15.3481 129.892 15.5448 129.758 15.7496C129.464 15.766 129.246 15.5038 129.196 15.2334ZM143.356 17.7737C143.977 17.6425 144.606 17.536 145.235 17.4541C146.518 17.2902 147.81 17.2246 149.111 17.2656C151.661 17.3475 154.203 17.831 156.593 18.6914C157.248 18.9291 157.902 19.1913 158.523 19.4945C159.06 19.7485 159.529 20.0599 159.848 20.5352C159.035 20.2893 158.179 20.15 157.348 19.9861C156.417 19.7977 155.478 19.6256 154.538 19.4617C152.659 19.1339 150.772 18.8553 148.876 18.6177C146.728 18.3473 144.572 18.1424 142.408 17.9867C142.718 17.913 143.037 17.8474 143.339 17.7819L143.356 17.7737ZM141.46 18.2817C141.502 18.2653 141.544 18.2489 141.586 18.2325C141.871 18.2489 142.156 18.2653 142.442 18.2817C146.208 18.5521 149.966 18.9946 153.691 19.6174C154.748 19.7895 155.805 19.9861 156.862 20.191C157.852 20.3795 158.842 20.6499 159.84 20.781C159.68 20.9613 159.412 21.035 159.186 21.0924C158.867 21.1743 158.54 21.2317 158.212 21.2727C157.55 21.3464 156.879 21.3218 156.208 21.2891C154.899 21.2235 153.632 21.1989 152.332 21.3218C150.99 21.4447 149.656 21.5595 148.314 21.3382C147.089 21.1416 145.923 20.7073 144.816 20.1746C144.186 19.8714 143.574 19.5355 142.97 19.1831C142.458 18.8881 141.955 18.5357 141.418 18.2817C141.435 18.2817 141.452 18.2817 141.468 18.2735L141.46 18.2817ZM170.779 18.3391C172.381 20.0107 173.715 21.9446 174.663 24.0342C174.948 24.6651 175.191 25.3207 175.309 26.0008C175.401 26.5417 175.393 27.0415 175.275 27.5496C174.688 26.1238 173.807 24.7553 172.918 23.5015C171.937 22.1249 170.838 20.822 169.638 19.6174C168.12 18.0768 166.45 16.692 164.672 15.4464C164.672 15.4137 164.655 15.3973 164.63 15.3727C167.029 14.7909 169.244 16.7494 170.77 18.3309L170.779 18.3391ZM164.605 15.9135C167.499 17.9293 170.108 20.3139 172.23 23.1328C172.775 23.8621 173.295 24.616 173.774 25.3945C174.277 26.2139 174.696 27.0743 175.166 27.9101C173.044 27.4021 171.24 26.1074 169.663 24.6733C168.799 23.8949 167.977 23.0672 167.188 22.215C166.392 21.3464 165.637 20.4123 165.142 19.3388C164.638 18.2489 164.437 17.0771 164.613 15.9053L164.605 15.9135ZM197.917 21.1661C198.554 22.0839 199.108 23.0754 199.502 24.1161C199.586 24.3292 199.729 24.5996 199.72 24.8372C199.72 25.1568 199.401 25.0749 199.15 24.9765C198.563 24.1407 197.799 23.3868 197.103 22.6411C196.348 21.8381 195.576 21.0596 194.762 20.3139C193.177 18.8717 191.44 17.6343 189.578 16.5609C188.437 15.8971 187.263 15.3153 186.055 14.7909C190.786 14.9876 195.224 17.3475 197.9 21.1743L197.917 21.1661ZM193.873 20.1009C194.804 20.9285 195.685 21.8135 196.541 22.7231C196.96 23.1738 197.38 23.6245 197.791 24.0833C197.95 24.2554 198.101 24.4275 198.261 24.5996C197.9 24.4521 197.539 24.3046 197.178 24.1571C194.855 23.182 192.548 22.1003 190.518 20.6089C188.488 19.1175 186.86 17.2656 185.77 15.0285C188.706 16.3232 191.466 17.9785 193.873 20.1091V20.1009ZM189.134 11.4394C189.134 11.4394 189.192 11.4148 189.226 11.4066C189.93 11.128 190.551 10.6937 191.113 10.1938C192.254 9.19411 193.219 8.0387 194.452 7.12912C196.759 5.44108 199.561 4.42497 202.421 4.17094C203.202 4.10539 203.99 4.089 204.77 4.13817C204.527 4.18733 204.284 4.24469 204.049 4.31025C202.79 4.65441 201.582 5.14608 200.433 5.75246C198.084 6.98162 195.895 8.4812 193.58 9.77592C192.934 10.1365 192.279 10.4888 191.6 10.8002C191.029 11.0624 190.434 11.2755 189.863 11.5295C189.62 11.4967 189.377 11.4722 189.134 11.4476V11.4394ZM202.111 8.23537C200.223 9.96439 197.95 11.169 195.383 11.6279C194.67 11.759 193.94 11.8327 193.21 11.8491C192.833 11.8573 192.447 11.8491 192.07 11.8327C192.019 11.8327 191.961 11.8327 191.91 11.8327C191.893 11.8327 191.877 11.8163 191.86 11.8163C191.39 11.7426 190.912 11.677 190.434 11.6115C190.736 11.4967 191.029 11.3656 191.323 11.2345C191.919 10.9723 192.506 10.6855 193.076 10.3741C194.209 9.76772 195.308 9.10398 196.407 8.44023C198.646 7.07996 200.928 5.75246 203.462 4.95761C204.158 4.73636 204.871 4.56427 205.592 4.44955C205.878 4.40039 206.171 4.3758 206.465 4.35122C206.557 4.36761 206.641 4.3758 206.733 4.39219C204.946 5.33455 203.587 6.89968 202.119 8.24356L202.111 8.23537Z" fill="white"/>
<path id="Vector_2" d="M0.134251 4.9904C1.45129 5.45748 2.55022 6.31789 3.56526 7.24386C4.47125 8.07969 5.32691 8.97288 6.27484 9.76774C7.23955 10.5708 8.32171 11.2427 9.47936 11.7426C10.6622 12.2588 11.9205 12.603 13.204 12.7669C13.8248 12.8488 14.4623 12.8734 15.0915 12.857C15.3935 12.857 15.6871 12.8324 15.9891 12.7997C16.031 12.8734 16.1065 12.9226 16.2156 12.9226C16.8867 12.8898 17.5578 12.8652 18.2373 12.8243C20.9301 12.6522 23.6061 12.3326 26.2989 12.1113C28.9833 11.8819 31.6761 11.6934 34.3773 11.5787C34.8303 11.5623 35.2917 11.5459 35.7447 11.5295C35.3 11.6115 34.8554 11.6934 34.4192 11.7754C33.1274 12.0212 31.8439 12.2916 30.5604 12.603C27.7585 13.2749 24.9986 14.1272 22.3561 15.258C22.3729 15.1351 22.289 14.9794 22.1129 14.9876C19.1852 15.0777 16.3078 15.9873 13.8835 17.5934C11.8786 18.9209 10.2176 20.7319 9.04314 22.805C8.74115 23.3377 8.4811 23.8785 8.24621 24.4439C8.07843 24.8372 7.71772 25.4354 7.96938 25.8615C8.15393 26.1811 8.49787 26.1729 8.81665 26.0828C8.85859 26.0992 8.91731 26.0992 8.96764 26.0582C8.97603 26.05 8.98442 26.0418 9.0012 26.0336C9.09348 26.0009 9.17736 25.9681 9.26125 25.9353C9.91558 25.6649 10.5783 25.3945 11.2326 25.1159C13.7073 24.0588 16.1652 22.8788 18.2792 21.2071C20.1163 19.7485 21.7857 17.8638 22.5575 15.6513C22.5659 15.6185 22.5575 15.5858 22.5575 15.5612C23.346 15.217 24.1514 14.8974 24.9651 14.6024C27.1294 13.824 29.344 13.2094 31.5922 12.7013C33.6223 12.2343 35.6859 11.9147 37.716 11.4804C41.9607 11.3902 46.2139 11.4968 50.4334 11.9229C50.5173 11.9229 50.5928 11.9393 50.6767 11.9475C49.3093 12.5784 47.9755 13.2586 46.6752 14.0042C45.7441 14.5369 44.8297 15.1105 43.9405 15.7169C43.9237 15.7169 43.9153 15.7005 43.8986 15.6923C42.4892 15.2498 41.0296 15.6267 39.7964 16.3724C38.6807 17.0444 37.7244 17.9785 36.8436 18.9209C35.9795 19.8387 35.2078 20.8384 34.5367 21.8873C33.8572 22.9443 33.2616 24.0752 32.817 25.247C32.3975 26.3778 32.1207 27.7135 32.5401 28.8853C32.5653 28.959 32.6744 29.0246 32.7499 29.0082C34.0333 28.7296 35.2245 28.1806 36.3067 27.4595C37.2966 26.8039 38.1942 26.0336 39.0498 25.2142C39.9223 24.3866 40.7779 23.5261 41.5665 22.6166C43.001 20.9367 44.2928 18.6259 43.6888 16.3888C46.1635 14.6926 48.8479 13.2586 51.6079 12.0622C56.4482 12.6276 61.1711 13.6847 65.8185 15.1515C68.9894 16.1512 72.1184 17.2738 75.281 18.3145C73.7039 18.2899 72.1268 18.3391 70.5581 18.3883C69.2746 18.4292 67.9995 18.4948 66.7161 18.5767C66.7077 18.5767 66.6993 18.5685 66.6909 18.5603C65.9275 18.3964 65.1893 18.1588 64.4259 18.0113C63.6961 17.8638 62.9579 17.7573 62.2197 17.6835C59.5436 17.4131 56.8173 17.577 54.2 18.1834C52.9081 18.4784 51.6498 18.8881 50.425 19.4044C49.5274 19.7813 48.1684 20.2566 47.8748 21.2973C47.8329 21.33 47.8161 21.3792 47.8413 21.4366C48.0762 21.961 48.8228 22.0593 49.3345 22.1495C50.0727 22.2724 50.8277 22.2642 51.5659 22.2314C52.2706 22.1987 52.9752 22.1413 53.6799 22.1331C54.4181 22.1249 55.1647 22.1823 55.9029 22.2478C57.2787 22.3625 58.646 22.4936 60.005 22.2314C61.2466 21.9938 62.4294 21.5349 63.5451 20.9695C64.1071 20.6827 64.6608 20.3795 65.2061 20.0599C65.7597 19.7321 66.3637 19.4044 66.8503 18.9864C66.8838 18.9537 66.8755 18.9045 66.8503 18.8881C68.2932 18.798 69.7444 18.7324 71.1873 18.6914C72.8986 18.6505 74.6099 18.6751 76.3212 18.6669C77.5879 19.0684 78.8546 19.4617 80.1381 19.8141C84.8862 21.1334 89.7768 21.9692 94.7178 21.5595C94.8856 21.5431 94.8521 21.2973 94.6843 21.3055C94.0635 21.3382 93.4343 21.3628 92.8136 21.3628C88.594 21.3628 84.4248 20.5352 80.3814 19.388C80.3814 19.3798 80.3814 19.3716 80.3646 19.3634C79.7019 18.5194 79.0895 17.6426 78.4855 16.7576C78.8714 16.6428 79.1482 16.2741 79.165 15.8562C79.1986 15.2252 78.7708 14.5942 78.4604 14.0698C77.1433 11.8655 75.172 10.0955 73.3348 8.30914C72.303 7.30942 71.2628 6.3097 70.2226 5.31818C69.434 4.56429 68.528 3.53999 67.3201 3.60555C67.2278 3.60555 67.1942 3.70388 67.2194 3.77763C67.2026 3.8186 67.1942 3.87596 67.2278 3.93332C67.9744 5.19526 68.7378 6.44081 69.476 7.71094C70.6504 9.71857 71.7158 11.8409 73.209 13.6519C74.3918 15.0859 76.0947 16.5281 78.0409 16.7658C78.5862 17.5934 79.1399 18.4292 79.7439 19.2159C79.1818 19.052 78.6198 18.8799 78.0661 18.7078C73.2677 17.2001 68.5868 15.3645 63.7716 13.9223C62.9327 13.6683 62.0938 13.447 61.2466 13.2258C60.8942 12.7751 60.4329 12.3818 60.0386 11.9966C59.5017 11.4886 58.948 11.0133 58.3692 10.5544C58.4783 10.5298 58.5622 10.4315 58.5034 10.3086C57.3458 8.00594 55.5758 6.0147 53.3947 4.59707C51.3226 3.24499 48.8983 2.43375 46.4152 2.22889C45.7944 2.17972 45.1653 2.17153 44.5445 2.19611C44.0076 2.22069 43.3197 2.19611 42.8248 2.45014C42.397 2.66319 42.3886 3.07291 42.6822 3.40888C43.0681 3.86777 43.5211 4.28568 43.9741 4.67901C45.8112 6.29331 47.9839 7.49789 50.2573 8.42386C51.5659 8.95649 52.9165 9.39899 54.2755 9.80052C54.9382 9.99718 55.6093 10.1775 56.2804 10.3495C56.9347 10.5216 57.6058 10.7429 58.2853 10.792C58.3524 10.8494 58.4279 10.8986 58.4951 10.9559C59.0068 11.3656 59.5017 11.8 59.9799 12.2506C60.2735 12.5211 60.5419 12.8243 60.8271 13.1111C58.0253 12.4063 55.1899 11.8737 52.3293 11.4968C52.279 11.3902 52.1615 11.3165 52.0189 11.3738C51.9686 11.3902 51.9266 11.4148 51.8763 11.4394C50.6935 11.2919 49.5023 11.169 48.3111 11.0706C43.2023 10.6609 38.0683 10.7101 32.9512 10.9723C32.5989 10.6527 32.2046 10.3577 31.8439 10.0627C31.2818 9.60385 30.7198 9.15316 30.1493 8.71886C30.0654 8.6533 29.9732 8.58774 29.8893 8.52219C30.2416 7.4815 29.7467 6.41623 28.9749 5.68693C28.178 4.94124 27.1378 4.43318 26.1814 3.91693C25.158 3.35971 24.1178 2.82708 23.044 2.36C20.9384 1.45042 18.7154 0.80306 16.4001 0.696533C16.2575 0.696533 16.1317 0.844032 16.2323 0.966949C16.3162 1.07348 16.4085 1.18 16.4924 1.28653C16.484 1.35209 16.5008 1.41764 16.5847 1.45042C16.6098 1.45861 16.6266 1.46681 16.6518 1.4832C17.3061 2.29444 17.9604 3.10569 18.6567 3.88416C20.1163 5.49845 21.7605 6.99803 23.7403 7.98136C24.705 8.45663 25.7284 8.81719 26.7938 9.00566C27.7921 9.17774 28.933 9.2433 29.9061 8.93191C29.9564 8.91552 29.9732 8.88274 29.9732 8.84177C30.1158 8.9483 30.2584 9.04663 30.401 9.15316C30.9127 9.5301 31.4077 9.92343 31.9026 10.325C32.1626 10.538 32.4143 10.7675 32.6744 10.9887C32.5401 10.9887 32.3975 11.0051 32.2633 11.0051C29.5705 11.1526 26.8777 11.3493 24.1849 11.5869C22.8846 11.7016 21.5844 11.8327 20.2925 11.972C20.0241 11.972 19.764 11.9556 19.4956 11.8983C19.0258 11.7918 18.5728 11.5869 18.1618 11.3411C17.39 10.874 16.7357 10.243 16.1065 9.61205C15.0747 8.58774 14.0261 7.63719 12.7762 6.86692C11.5849 6.13762 10.2931 5.55582 8.95087 5.15429C7.60027 4.75276 6.20773 4.51513 4.79842 4.46596C3.85887 4.43318 2.85222 4.46596 1.88751 4.61346C1.3674 4.5561 0.847298 4.53971 0.327193 4.64624C0.327193 4.64624 0.318804 4.64624 0.310415 4.64624C0.0419742 4.5479 -0.125802 4.94943 0.134251 5.03957V4.9904ZM29.495 8.19441C27.6663 6.82595 25.7536 5.53943 23.7655 4.4086C21.576 3.17124 19.2775 1.98305 16.8783 1.17181C16.8363 1.11445 16.7944 1.06528 16.7524 1.00792C17.8262 1.08167 18.8916 1.27014 19.9234 1.56514C21.9787 2.14694 23.9165 3.07291 25.7704 4.09721C26.6848 4.60526 27.6663 5.09693 28.4716 5.76068C29.1762 6.35067 29.7551 7.26845 29.5034 8.19441H29.495ZM29.7718 8.66149C29.1762 8.70247 28.5974 8.77622 27.9934 8.74344C27.4314 8.71885 26.8777 8.63691 26.3324 8.514C22.4568 7.629 19.7388 4.6954 17.3397 1.75361C18.405 2.22889 19.4788 2.68777 20.5358 3.20402C22.8427 4.31846 25.1161 5.54762 27.2636 6.93248C28.0018 7.40775 28.7316 7.9158 29.4447 8.42386C29.4447 8.57955 29.6125 8.68608 29.7467 8.63691C29.7551 8.63691 29.7635 8.6533 29.7718 8.6533V8.66149ZM42.8332 3.01555C43.5295 3.34333 44.2593 3.58916 44.9807 3.86777C45.7693 4.17096 46.5662 4.48235 47.3547 4.79374C50.0475 5.85901 52.6984 7.05539 55.1563 8.57136C56.0875 9.14496 56.9935 9.75955 57.8575 10.4233C57.3542 10.2512 56.8173 10.1447 56.3056 10.0054C55.5674 9.80052 54.8291 9.60385 54.0993 9.3826C52.7236 8.97288 51.3646 8.514 50.0392 7.96497C47.9252 7.07997 45.8951 5.94095 44.1838 4.42499C43.7559 4.03985 43.3197 3.64652 42.9506 3.20402C42.9003 3.13847 42.8583 3.07291 42.8248 3.00736L42.8332 3.01555ZM58.0588 10.2676C55.9365 8.63691 53.596 7.30942 51.18 6.13762C49.7959 5.46568 48.3782 4.8511 46.9521 4.2611C46.239 3.9661 45.5176 3.68749 44.7962 3.41708C44.167 3.17124 43.5378 2.91722 42.8919 2.73694C42.9171 2.72055 42.9422 2.70416 42.9758 2.68777C43.0765 2.6468 43.1855 2.63041 43.2946 2.61402C43.563 2.58125 43.8314 2.56486 44.0999 2.54847C45.3163 2.46652 46.5326 2.53208 47.7322 2.73694C52.1699 3.50721 56.0287 6.35067 58.0588 10.2758V10.2676ZM67.7563 4.14638C68.5951 5.19526 69.5095 6.19498 70.3987 7.20289C72.1604 9.19413 73.964 11.1526 75.583 13.2504C76.3799 14.2747 77.1265 15.3317 77.8396 16.4052C77.8564 16.438 77.8815 16.4626 77.8983 16.4953C76.8833 16.2003 75.9437 15.7824 75.0965 15.1269C73.3348 13.7748 72.2023 11.8491 71.1034 9.98079C69.9709 8.03872 68.8636 6.08845 67.7479 4.13818L67.7563 4.14638ZM78.2674 16.3888C78.1332 16.184 77.9906 15.9873 77.8564 15.7824C76.3883 13.6027 74.677 11.6197 72.9238 9.66121C72.0178 8.64511 71.1034 7.63719 70.1974 6.62109C69.3669 5.69512 68.5448 4.76096 67.664 3.88416C68.7797 4.12179 69.6018 5.09693 70.382 5.85081C72.1436 7.53886 73.9304 9.21871 75.625 10.9723C76.3883 11.759 77.1182 12.5866 77.7389 13.488C78.0661 13.9551 78.3765 14.4467 78.6198 14.963C78.754 15.2416 78.8882 15.5612 78.8295 15.8726C78.7875 16.143 78.561 16.4052 78.2674 16.3888ZM65.6087 18.6177C63.4444 18.7734 61.2885 18.9783 59.141 19.2487C57.2451 19.4863 55.3576 19.7731 53.4786 20.0927C52.539 20.2566 51.5995 20.4287 50.6683 20.6171C49.8378 20.781 48.9822 20.9203 48.1684 21.1662C48.4956 20.6909 48.957 20.3795 49.4939 20.1255C50.123 19.8223 50.769 19.5601 51.4233 19.3224C53.8141 18.4538 56.3559 17.9703 58.9061 17.8966C60.198 17.8556 61.4982 17.9212 62.7817 18.0851C63.4109 18.167 64.04 18.2735 64.6608 18.4046C64.9712 18.4702 65.2816 18.5358 65.592 18.6095L65.6087 18.6177ZM66.6238 18.9291C66.0869 19.1831 65.5752 19.5355 65.0719 19.8305C64.4679 20.1828 63.8555 20.5188 63.2263 20.822C62.119 21.3546 60.953 21.7807 59.7282 21.9856C58.3944 22.2068 57.0522 22.0921 55.71 21.9692C54.4097 21.8463 53.1346 21.8709 51.8344 21.9364C51.1632 21.9692 50.4921 21.9856 49.8294 21.92C49.5023 21.8873 49.1751 21.8299 48.8563 21.7398C48.6298 21.6824 48.3614 21.6087 48.202 21.4284C49.2003 21.2973 50.1985 21.0269 51.18 20.8384C52.237 20.6335 53.2856 20.445 54.351 20.2648C58.0756 19.642 61.8254 19.1995 65.6003 18.9291C65.8856 18.9127 66.1708 18.8963 66.456 18.8799C66.498 18.8963 66.5399 18.9045 66.5818 18.9291C66.5986 18.9291 66.6154 18.9291 66.6322 18.9373L66.6238 18.9291ZM43.3952 16.0201C43.3952 16.0201 43.3617 16.061 43.3533 16.0938C41.5749 17.3394 39.9055 18.7242 38.3871 20.2648C37.1959 21.4693 36.0886 22.7723 35.1071 24.1489C34.2179 25.4027 33.3371 26.7629 32.7499 28.197C32.6324 27.6889 32.624 27.189 32.7163 26.6482C32.8337 25.9681 33.077 25.3125 33.3622 24.6816C34.3186 22.592 35.644 20.6499 37.2463 18.9864C38.7646 17.4049 40.9876 15.4547 43.3868 16.0283L43.3952 16.0201ZM42.9003 19.9862C42.4054 21.0596 41.6588 21.9938 40.8534 22.8624C40.0649 23.7146 39.2428 24.5423 38.3787 25.3207C36.8016 26.7547 34.9981 28.0495 32.8757 28.5575C33.3455 27.7217 33.7649 26.8613 34.2682 26.0418C34.7464 25.2634 35.2581 24.5095 35.8118 23.7802C37.9341 20.9613 40.543 18.5767 43.4372 16.5609C43.6133 17.7327 43.412 18.9045 42.9087 19.9944L42.9003 19.9862ZM21.9619 15.4301C20.7623 15.9627 19.5795 16.5445 18.4386 17.2001C16.5763 18.2817 14.8398 19.5109 13.2543 20.9531C12.4406 21.6988 11.6688 22.4773 10.9138 23.2803C10.2176 24.026 9.45419 24.7799 8.86698 25.6157C8.61532 25.7141 8.30493 25.796 8.29654 25.4764C8.29654 25.2388 8.43076 24.9766 8.51465 24.7553C8.90892 23.7146 9.46258 22.7231 10.1001 21.8053C12.7762 17.9785 17.2222 15.6185 21.9451 15.4219L21.9619 15.4301ZM22.2639 15.6677C21.1817 17.913 19.5459 19.7567 17.5158 21.2481C15.4857 22.7395 13.1788 23.8211 10.8551 24.7963C10.4944 24.9438 10.1337 25.0913 9.77297 25.2388C9.93235 25.0667 10.0834 24.8946 10.2427 24.7225C10.6538 24.2636 11.0732 23.8129 11.4927 23.3623C12.3483 22.4609 13.2291 21.5677 14.1603 20.74C16.5679 18.6095 19.3194 16.9542 22.2639 15.6595V15.6677ZM18.1701 12.1769C17.5997 11.9229 16.9957 11.718 16.4337 11.4476C15.7626 11.1362 15.0998 10.7838 14.4539 10.4233C12.147 9.12858 9.95752 7.629 7.60027 6.39984C6.45101 5.79345 5.23463 5.30179 3.9847 4.95762C3.74982 4.89207 3.50654 4.8429 3.26327 4.78554C4.04343 4.74457 4.83197 4.75276 5.61213 4.81832C8.4811 5.07235 11.2746 6.09665 13.5815 7.7765C14.8146 8.67788 15.7793 9.83329 16.9202 10.8412C17.4823 11.3329 18.103 11.7672 18.8077 12.054C18.8329 12.0622 18.8664 12.0786 18.9 12.0868C18.6567 12.1195 18.4134 12.1359 18.1701 12.1687V12.1769ZM1.28351 5.03957C1.37579 5.02318 1.45968 5.01498 1.55196 4.9986C1.84556 5.02318 2.13917 5.05596 2.42439 5.09693C3.14583 5.21165 3.85887 5.38373 4.55514 5.60498C7.08017 6.39984 9.36192 7.72733 11.6101 9.0876C12.709 9.75135 13.7996 10.4233 14.9405 11.0215C15.5109 11.3247 16.0981 11.6197 16.6937 11.8819C16.9789 12.013 17.2809 12.1441 17.5829 12.2588C17.1048 12.3244 16.635 12.3899 16.1568 12.4637C16.1401 12.4637 16.1233 12.4719 16.1065 12.4801C16.0562 12.4801 15.9974 12.4801 15.9471 12.4801C15.5696 12.4965 15.1837 12.5129 14.8062 12.4965C14.0764 12.4801 13.3466 12.3981 12.6335 12.2752C10.075 11.8163 7.8016 10.6118 5.90574 8.88274C4.4377 7.53886 3.07033 5.97373 1.2919 5.03137L1.28351 5.03957Z" fill="white"/>
<path id="Vector_3" d="M96.3368 21.0023C96.3368 21.0023 96.3116 20.9613 96.2948 20.9367C96.2613 20.8957 96.2193 20.863 96.169 20.8466C96.127 20.8302 96.0935 20.822 96.0515 20.8302C96.0096 20.8302 95.976 20.8302 95.9341 20.8548C95.9005 20.8712 95.867 20.8875 95.8418 20.9203C95.8083 20.9449 95.7915 20.9777 95.7747 21.0105C95.7579 21.0596 95.7495 21.117 95.7579 21.1662C95.7579 21.1907 95.7663 21.2071 95.7747 21.2317C95.7747 21.2727 95.7915 21.3055 95.8167 21.33C95.8334 21.3628 95.8586 21.3874 95.8921 21.412C95.9173 21.4202 95.9341 21.4366 95.9593 21.4448C95.9928 21.4611 96.0348 21.4693 96.0767 21.4611C96.1019 21.4611 96.127 21.4611 96.1522 21.453C96.1858 21.453 96.2193 21.4284 96.2529 21.4038C96.2696 21.3874 96.2864 21.371 96.3032 21.3546C96.3368 21.3136 96.3535 21.2645 96.3619 21.2153C96.3619 21.1907 96.3703 21.1662 96.3787 21.1498C96.3787 21.0924 96.3787 21.0432 96.3535 20.9941L96.3368 21.0023Z" fill="white"/>
<path id="Vector_4" d="M112.259 20.6581C112.251 20.6007 112.225 20.5516 112.192 20.5106C112.175 20.4942 112.15 20.4696 112.133 20.4532C112.083 20.4204 112.032 20.3959 111.974 20.3877C111.932 20.3877 111.89 20.3877 111.848 20.3959C111.806 20.3959 111.772 20.4204 111.739 20.445C111.705 20.4696 111.68 20.5024 111.663 20.5352C111.638 20.5679 111.621 20.6089 111.621 20.6499C111.621 20.6745 111.621 20.7072 111.621 20.7318C111.63 20.7892 111.655 20.8384 111.688 20.8793C111.705 20.8957 111.73 20.9203 111.747 20.9367C111.798 20.9695 111.848 20.9941 111.907 21.0022C111.948 21.0022 111.99 21.0022 112.032 20.9941C112.074 20.9941 112.108 20.9695 112.141 20.9449C112.175 20.9203 112.2 20.8875 112.217 20.8547C112.242 20.822 112.259 20.781 112.259 20.74V20.6581Z" fill="white"/>
<path id="Vector_5" d="M106.303 14.373C106.21 14.3484 106.135 14.3976 106.093 14.4631C105.665 13.1274 104.826 11.8163 103.66 10.9723C103.576 10.7183 103.484 10.4643 103.333 10.2594C103.3 10.2184 103.258 10.2102 103.207 10.2184C103.14 10.202 103.056 10.2184 103.014 10.2922C102.545 11.1526 102.326 12.2342 102.167 13.193C102.083 13.6847 102.033 14.1763 102.008 14.668C101.513 14.9384 101.177 15.6185 101.026 16.0938C100.808 16.7739 100.791 17.5032 100.942 18.1998C101.286 19.7567 102.452 21.1825 103.61 22.2724C103.644 22.3216 103.685 22.3461 103.727 22.3625C103.736 22.4117 103.769 22.4445 103.803 22.4691C103.786 22.5428 103.845 22.6166 103.929 22.5756C104.667 22.1986 105.304 21.5185 105.808 20.8793C106.336 20.2074 106.756 19.4371 107.058 18.6423C107.351 17.8474 107.586 16.946 107.536 16.0938C107.494 15.3727 107.075 14.5615 106.303 14.373ZM105.808 14.8483C106.034 15.6923 106.093 16.5773 105.992 17.4459C105.976 17.5606 105.959 17.6671 105.934 17.7819C105.908 17.5196 105.875 17.2574 105.825 17.0034C105.59 15.8234 105.112 14.7008 104.642 13.5863C104.407 13.0373 104.172 12.4965 103.962 11.9392C103.92 11.8245 103.878 11.7016 103.845 11.5787C104.751 12.5047 105.464 13.5617 105.808 14.8483ZM103.35 11.6197C103.367 11.6688 103.383 11.7262 103.4 11.7754C103.585 12.308 103.803 12.8406 104.029 13.3569C104.491 14.4058 104.969 15.4546 105.271 16.5609C105.514 17.4623 105.606 18.4538 105.455 19.388C105.363 19.5928 105.279 19.7977 105.229 20.0107C105.212 20.0681 105.237 20.1091 105.271 20.1418C105.078 20.7318 104.784 21.2809 104.34 21.748C104.558 21.1416 104.608 20.4368 104.608 19.8387C104.608 18.9045 104.424 17.9703 104.197 17.0689C103.937 16.0365 103.618 15.0203 103.425 13.9797C103.283 13.1848 103.266 12.4145 103.342 11.6361L103.35 11.6197ZM101.345 18.2981C101.177 17.6917 101.16 17.0444 101.295 16.4298C101.37 16.0938 101.496 15.766 101.681 15.4792C101.773 15.3399 101.882 15.217 101.991 15.1023C101.983 15.4956 101.983 15.889 101.991 16.2823C102.075 17.9048 102.436 19.5355 103.048 21.0596C102.318 20.2402 101.63 19.3962 101.337 18.3063L101.345 18.2981ZM102.385 16.2905C102.326 15.2744 102.385 14.2419 102.553 13.234C102.679 12.4473 102.922 11.7016 103.14 10.9395C102.612 12.7587 103.375 14.8155 103.836 16.5609C104.08 17.4787 104.289 18.4128 104.331 19.3552C104.357 19.8469 104.331 20.3467 104.239 20.8302C104.172 21.1907 104.038 21.5103 103.904 21.8299C102.998 20.1009 102.494 18.2326 102.385 16.2823V16.2905ZM106.538 18.9537C106.252 19.6174 105.867 20.232 105.422 20.8056C105.606 20.445 105.741 20.0517 105.825 19.6502C105.95 19.3798 106.043 19.093 106.127 18.8225C106.261 18.3637 106.361 17.8966 106.412 17.4213C106.504 16.5445 106.429 15.6513 106.202 14.7991C107.83 15.4055 107.049 17.7901 106.546 18.9537H106.538Z" fill="white"/>
<path id="Vector_6" d="M103.962 23.0836C103.4 23.0836 103.283 23.944 103.853 23.944C104.424 23.944 104.533 23.0836 103.962 23.0836Z" fill="white"/>
</g>
<defs>
<clipPath id="clip0_3029_156">
<rect width="208" height="29" fill="white"/>
</clipPath>
</defs>
</svg>
