<svg width="45" height="57" viewBox="0 0 45 57" fill="none" xmlns="http://www.w3.org/2000/svg"><path d="M18.972 57V42.517c3.818-.93 6.869-2.5 9.153-4.707a19.43 19.43 0 004.96-7.81 27.82 27.82 0 001.585-9.31c0-2.449-.153-4.862-.46-7.242-.307-2.379-.954-4.534-1.943-6.465-.955-1.966-2.386-3.535-4.295-4.707-1.875-1.207-4.398-1.81-7.569-1.81-2.727 0-5.3.5-7.721 1.5a22.105 22.105 0 00-6.392 3.93C4.449 7.518 3 9.346 1.943 11.38c-1.057 2-1.585 4.035-1.585 6.104H.102c0-1.035.273-1.931.818-2.69a5.023 5.023 0 012.148-1.707 6.456 6.456 0 012.762-.62c1.022 0 1.977.224 2.863.672.887.414 1.603 1.052 2.148 1.914.545.827.818 1.845.818 3.051 0 1.38-.307 2.5-.92 3.362a5.373 5.373 0 01-2.302 1.81c-.886.38-1.755.57-2.607.57-1.569 0-2.932-.535-4.091-1.604C.579 21.172 0 19.586 0 17.483c0-2.138.545-4.242 1.636-6.31 1.125-2.07 2.66-3.932 4.603-5.587 1.943-1.69 4.176-3.034 6.699-4.034C15.494.517 18.203 0 21.068 0c4.807 0 9 .862 12.58 2.586 3.613 1.724 6.409 4.138 8.386 7.242C44.011 12.93 45 16.552 45 20.69c0 3.965-1.142 7.551-3.426 10.758-2.25 3.207-5.335 5.828-9.256 7.862-3.886 2-8.233 3.155-13.04 3.466V57h-.306z" fill="#fff"/></svg>